<svg width="42" height="9" viewBox="0 0 42 9" fill="none" xmlns="http://www.w3.org/2000/svg">
<g clip-path="url(#clip0_18_19943)">
<g clip-path="url(#clip1_18_19943)">
<path d="M30.6672 1.69086C30.2697 1.69086 29.8941 1.82125 29.5414 2.08283V4.45865C29.8997 4.73183 30.2693 4.86782 30.6508 4.86782C31.4235 4.86782 31.8103 4.33986 31.8103 3.28394C31.8103 2.22202 31.4291 1.69086 30.6672 1.69086ZM29.4826 1.58007C29.6834 1.40013 29.9137 1.25605 30.1633 1.1541C30.3983 1.05865 30.6496 1.00949 30.9032 1.00931C31.172 1.00931 31.4159 1.06011 31.6339 1.1625C31.8515 1.26386 32.0417 1.41581 32.1887 1.60567C32.3398 1.79845 32.4562 2.03283 32.5374 2.30841C32.6186 2.58399 32.6594 2.89477 32.6594 3.24114C32.6594 3.59311 32.6158 3.91109 32.529 4.19507C32.4422 4.47905 32.3202 4.72063 32.1635 4.91901C32.0102 5.11463 31.8149 5.2732 31.5919 5.38298C31.3589 5.4958 31.1029 5.55277 30.844 5.54937C30.3401 5.54937 29.9057 5.38178 29.5418 5.047V7.04005C29.5418 7.15364 29.4858 7.21044 29.3738 7.21044H28.8779C28.7659 7.21044 28.7099 7.15364 28.7099 7.04005V1.30729C28.7099 1.1937 28.7659 1.1369 28.8779 1.1369H29.2478C29.3598 1.1369 29.4242 1.1937 29.441 1.30729L29.4826 1.58007ZM34.7595 4.92781C34.9579 4.92533 35.1542 4.88782 35.3395 4.81702C35.5482 4.73922 35.7437 4.62997 35.9194 4.49305V3.62431C35.7794 3.59032 35.6318 3.56352 35.4778 3.54352C35.3288 3.52393 35.1786 3.51391 35.0283 3.51352C34.3952 3.51352 34.0788 3.7603 34.0788 4.25466C34.0788 4.47065 34.1376 4.63664 34.2552 4.75303C34.3728 4.86902 34.5412 4.92781 34.7595 4.92781ZM33.7765 1.87805L33.7133 1.89924C33.6903 1.90751 33.6661 1.91197 33.6417 1.91244C33.5689 1.91244 33.5325 1.86125 33.5325 1.75885V1.52847C33.5325 1.44888 33.5437 1.39368 33.5661 1.36248C33.5885 1.33129 33.6337 1.30129 33.7009 1.27289C33.88 1.1933 34.1008 1.1293 34.3648 1.08091C34.6276 1.03291 34.8911 1.00891 35.1543 1.00891C35.6862 1.00891 36.0786 1.1197 36.3309 1.34089C36.5829 1.56247 36.7089 1.90604 36.7089 2.37161V5.28499C36.7089 5.39858 36.6529 5.45537 36.5409 5.45537H36.1798C36.073 5.45537 36.0118 5.40138 35.9946 5.29339L35.9526 5.01261C35.755 5.18611 35.5291 5.32438 35.2847 5.42138C35.0538 5.51534 34.8072 5.56448 34.558 5.56616C34.1544 5.56616 33.8352 5.45097 33.6001 5.22099C33.3645 4.99101 33.2469 4.68303 33.2469 4.29706C33.2469 3.88229 33.3925 3.55152 33.6837 3.30474C33.9756 3.05756 34.3676 2.93396 34.8603 2.93396C35.1739 2.93396 35.527 2.98196 35.919 3.07875V2.5172C35.919 2.21042 35.8518 1.99444 35.7174 1.86965C35.583 1.74446 35.3475 1.68206 35.0119 1.68206C34.6192 1.68206 34.2084 1.74725 33.7765 1.87805ZM39.4398 6.21372C39.2882 6.60569 39.1134 6.88686 38.9142 7.05725C38.7159 7.22764 38.4567 7.31283 38.1371 7.31283C37.9579 7.31283 37.7984 7.29283 37.6584 7.25284C37.6059 7.24154 37.5586 7.21312 37.524 7.17204C37.496 7.13485 37.482 7.07725 37.482 6.99726V6.77607C37.482 6.66808 37.524 6.61409 37.608 6.61409C37.636 6.61409 37.678 6.61968 37.734 6.63128C37.79 6.64248 37.866 6.64848 37.9607 6.64848C38.1735 6.64848 38.3391 6.59729 38.4567 6.49489C38.5743 6.3929 38.6807 6.20532 38.7758 5.93254L38.9358 5.49817L37.3136 1.44368C37.2744 1.34729 37.2552 1.27929 37.2552 1.23929C37.2552 1.1713 37.294 1.1369 37.3728 1.1369H37.8768C37.9663 1.1369 38.0279 1.1513 38.0619 1.1793C38.0951 1.2081 38.1287 1.27049 38.1623 1.36728L39.339 4.67223L40.4732 1.36688C40.5068 1.27089 40.5404 1.2081 40.574 1.1793C40.6076 1.1513 40.6692 1.1369 40.7588 1.1369H41.2295C41.3079 1.1369 41.3471 1.1713 41.3471 1.23929C41.3471 1.27929 41.3271 1.34729 41.2883 1.44328L39.4398 6.21372ZM16.653 7.16404C15.1487 8.28956 12.967 8.88791 11.0888 8.88791C8.45596 8.88791 6.08545 7.90159 4.29127 6.25931C4.15049 6.13052 4.27607 5.95413 4.44525 6.05413C6.38102 7.19604 8.77472 7.88359 11.2468 7.88359C12.9146 7.88359 14.7476 7.53282 16.4346 6.80727C16.689 6.69808 16.9025 6.97726 16.6534 7.16364" fill="#333E48"/>
<path d="M17.2785 6.43883C17.0857 6.18924 16.0063 6.32043 15.5211 6.37963C15.3739 6.39723 15.3511 6.26724 15.4839 6.17285C16.345 5.55969 17.7564 5.73688 17.9204 5.94206C18.0856 6.14925 17.8772 7.58354 17.0697 8.26829C16.9457 8.37348 16.8278 8.31708 16.8826 8.17829C17.0645 7.71833 17.4709 6.68881 17.2785 6.43883ZM15.5635 1.80038V1.20442C15.5629 1.18465 15.5662 1.16495 15.5734 1.14651C15.5806 1.12808 15.5915 1.11131 15.6054 1.0972C15.6192 1.0831 15.6358 1.07197 15.6542 1.06448C15.6725 1.05699 15.6921 1.0533 15.7119 1.05363L18.3476 1.05323C18.4316 1.05323 18.4996 1.11523 18.4996 1.20362V1.71478C18.4984 1.80038 18.4276 1.91237 18.3012 2.08996L16.9357 4.06501C17.4425 4.05301 17.9784 4.1302 18.4384 4.39218C18.5423 4.45138 18.5703 4.53897 18.5783 4.62496V5.26091C18.5783 5.34811 18.4836 5.4497 18.3844 5.3969C17.5733 4.96614 16.4974 4.91934 15.6007 5.4021C15.5087 5.4517 15.4127 5.35171 15.4127 5.26411V4.65976C15.4127 4.56297 15.4147 4.39738 15.5111 4.25019L17.0921 1.95037H15.7159C15.6959 1.95096 15.6761 1.94751 15.6575 1.94021C15.6389 1.93291 15.622 1.92191 15.6078 1.90789C15.5936 1.89387 15.5824 1.87712 15.5748 1.85864C15.5673 1.84016 15.5632 1.82034 15.5635 1.80038ZM5.95309 5.52209H5.15119C5.11485 5.52016 5.08042 5.50524 5.05415 5.48007C5.02787 5.45489 5.0115 5.42113 5.00801 5.38491L5.00841 1.21442C5.00867 1.19439 5.01288 1.17461 5.02081 1.15622C5.02874 1.13783 5.04023 1.12118 5.05462 1.10725C5.069 1.09331 5.086 1.08235 5.10463 1.075C5.12326 1.06765 5.14316 1.06406 5.16319 1.06443H5.9095C5.94677 1.06579 5.98224 1.08081 6.00915 1.10662C6.03607 1.13243 6.05256 1.16724 6.05548 1.20442V1.74838H6.07028C6.26505 1.22242 6.63141 0.97644 7.12535 0.97644C7.62649 0.97644 7.94085 1.22202 8.16522 1.74838C8.36 1.22242 8.80114 0.97644 9.27269 0.97644C9.60944 0.97644 9.9758 1.11683 10.2006 1.43281C10.4545 1.78398 10.4025 2.29274 10.4025 2.74071L10.4017 5.37251C10.4014 5.3925 10.3972 5.41224 10.3892 5.43058C10.3813 5.44893 10.3698 5.46553 10.3554 5.47942C10.341 5.49332 10.324 5.50424 10.3054 5.51157C10.2868 5.51889 10.267 5.52247 10.247 5.52209H9.44666C9.4081 5.52026 9.37171 5.50374 9.34494 5.47593C9.31816 5.44811 9.30305 5.41111 9.30268 5.37251V3.16147C9.30268 2.98629 9.31748 2.54752 9.28028 2.38073C9.22029 2.09956 9.04031 2.02076 8.80874 2.02076C8.61437 2.02076 8.41239 2.15275 8.33 2.36274C8.24761 2.57352 8.25481 2.92469 8.25481 3.16147V5.37211C8.25455 5.3921 8.25035 5.41185 8.24244 5.43021C8.23454 5.44858 8.22309 5.46521 8.20874 5.47914C8.1944 5.49307 8.17745 5.50404 8.15887 5.51141C8.14028 5.51878 8.12042 5.52241 8.10043 5.52209H7.29973C7.2612 5.52016 7.22486 5.50362 7.19811 5.47582C7.17136 5.44803 7.15621 5.41108 7.15574 5.37251L7.15534 3.16147C7.15534 2.69631 7.22974 2.01196 6.66141 2.01196C6.08548 2.01196 6.10787 2.67911 6.10787 3.16147L6.10747 5.37211C6.10721 5.39213 6.103 5.41191 6.09507 5.43031C6.08714 5.4487 6.07565 5.46534 6.06127 5.47928C6.04688 5.49322 6.02989 5.50418 6.01125 5.51153C5.99262 5.51887 5.97312 5.52247 5.95309 5.52209ZM20.7745 1.82798C20.1833 1.82798 20.1462 2.64391 20.1462 3.15268C20.1462 3.66184 20.1382 4.74975 20.7669 4.74975C21.3884 4.74975 21.418 3.87222 21.418 3.33706C21.418 2.98629 21.4028 2.56512 21.298 2.23155C21.2084 1.94197 21.0288 1.82758 20.7741 1.82758L20.7745 1.82798ZM20.7669 0.97644C21.9567 0.97644 22.6002 2.01236 22.6002 3.32826C22.6002 4.60057 21.8895 5.61009 20.7669 5.61009C19.5998 5.61009 18.9639 4.57417 18.9639 3.28467C18.9635 1.98556 19.607 0.97644 20.7669 0.97644ZM24.1429 5.52209H23.3442C23.3056 5.52016 23.2693 5.50362 23.2425 5.47582C23.2158 5.44803 23.2006 5.41108 23.2002 5.37251L23.199 1.20082C23.2031 1.16297 23.2212 1.12801 23.2498 1.10284C23.2783 1.07767 23.3153 1.06411 23.3534 1.06483L24.0965 1.06443C24.1665 1.06803 24.2244 1.11643 24.2388 1.18082V1.81878H24.254C24.4788 1.24842 24.7928 0.97644 25.3467 0.97644C25.7059 0.97644 26.0578 1.10803 26.2822 1.468C26.4918 1.80158 26.4918 2.36274 26.4918 2.7667V5.3909C26.4865 5.42779 26.468 5.46147 26.4396 5.48563C26.4112 5.50979 26.375 5.52276 26.3378 5.52209H25.5347C25.4993 5.52028 25.4657 5.50618 25.4397 5.48223C25.4136 5.45828 25.3967 5.42598 25.3919 5.3909V3.12668C25.3919 2.67031 25.4439 2.00316 24.8908 2.00316C24.696 2.00316 24.5164 2.13515 24.4268 2.33674C24.3144 2.59112 24.2992 2.8455 24.2992 3.12668V5.37211C24.2981 5.41256 24.2811 5.45095 24.2519 5.479C24.2228 5.50706 24.1833 5.52253 24.1429 5.52209ZM14.2709 5.55209C14.2452 5.57449 14.2132 5.58834 14.1793 5.59171C14.1454 5.59507 14.1113 5.5878 14.0817 5.57089C13.8157 5.34691 13.7677 5.24292 13.6222 5.02933C13.1822 5.4837 12.8706 5.62009 12.3007 5.62009C11.626 5.62009 11.1009 5.19812 11.1009 4.35378C11.1009 3.69383 11.4536 3.24587 11.956 3.02588C12.3907 2.8323 12.9982 2.7971 13.4634 2.74431V2.63871C13.4634 2.44513 13.4782 2.21675 13.3654 2.04956C13.2682 1.89997 13.0806 1.83837 12.9158 1.83837C12.6099 1.83837 12.3383 1.99716 12.2715 2.32634C12.2575 2.39953 12.2047 2.47193 12.1323 2.47593L11.3552 2.39033C11.2896 2.37553 11.2168 2.32234 11.2356 2.22035C11.4144 1.26482 12.2655 0.97644 13.0282 0.97644C13.4182 0.97644 13.9281 1.08163 14.2353 1.38081C14.6252 1.75038 14.5876 2.24274 14.5876 2.7795V4.04541C14.5876 4.42618 14.7436 4.59337 14.8904 4.79815C14.9416 4.87214 14.9528 4.96014 14.8876 5.01413C14.724 5.15332 14.4333 5.4093 14.2729 5.55409L14.2709 5.55209ZM13.463 3.57104V3.39506C12.883 3.39506 12.2711 3.52065 12.2711 4.21299C12.2711 4.56497 12.4511 4.80215 12.7583 4.80215C12.983 4.80215 13.1858 4.66136 13.313 4.43298C13.4706 4.1514 13.4634 3.88782 13.4634 3.57104H13.463ZM3.76376 5.55209C3.73809 5.57449 3.70608 5.58834 3.67217 5.59171C3.63827 5.59507 3.60416 5.5878 3.57458 5.57089C3.30782 5.34691 3.26022 5.24292 3.11464 5.02933C2.67509 5.4841 2.36353 5.62009 1.7936 5.62009C1.11849 5.62009 0.59375 5.19812 0.59375 4.35378C0.59375 3.69383 0.945707 3.24587 1.44845 3.02588C1.88319 2.8323 2.49072 2.7971 2.95546 2.74431V2.63871C2.95546 2.44513 2.97066 2.21675 2.85827 2.04956C2.76068 1.89997 2.57311 1.83837 2.40833 1.83837C2.10276 1.83837 1.8308 1.99716 1.76441 2.32634C1.75001 2.39953 1.69721 2.47193 1.62442 2.47593L0.848519 2.39033C0.782527 2.37553 0.709736 2.32234 0.728533 2.22035C0.906912 1.26482 1.75801 0.97644 2.52071 0.97644C2.91067 0.97644 3.4206 1.08163 3.72777 1.38081C4.11772 1.75038 4.08052 2.24274 4.08052 2.7795V4.04541C4.08052 4.42618 4.2365 4.59337 4.38288 4.79815C4.43408 4.87214 4.44568 4.96014 4.38049 5.01413C4.17324 5.19144 3.96831 5.37144 3.76576 5.55409L3.76376 5.55209ZM2.95586 3.57104V3.39506C2.37593 3.39506 1.76321 3.52065 1.76321 4.21299C1.76321 4.56497 1.94318 4.80215 2.25075 4.80215C2.47552 4.80215 2.67829 4.66136 2.80548 4.43298C2.96306 4.1514 2.95586 3.88782 2.95586 3.57104Z" fill="#333E48"/>
</g>
</g>
<defs>
<clipPath id="clip0_18_19943">
<rect width="40.795" height="8" fill="white" transform="translate(0.59375 0.976196)"/>
</clipPath>
<clipPath id="clip1_18_19943">
<rect width="40.795" height="8" fill="white" transform="translate(0.59375 0.976196)"/>
</clipPath>
</defs>
</svg>
