<svg width="44" height="39" viewBox="0 0 44 39" fill="none" xmlns="http://www.w3.org/2000/svg">
<g clip-path="url(#clip0_18_15101)">
<path d="M17.75 13.4504L17.7858 7.58512C17.7858 7.44207 17.911 7.33478 18.0362 7.33478L20.7548 7.35266C20.8979 7.35266 21.0052 7.47783 21.0052 7.60301L20.9873 13.4683C20.9873 13.6113 20.8621 13.7186 20.7369 13.7186L18.0183 13.7007C17.8573 13.7007 17.75 13.5935 17.75 13.4504ZM25.1189 13.4325L25.1547 7.56724C25.1547 7.42419 25.2799 7.31689 25.4051 7.31689L28.1237 7.33478C28.2668 7.33478 28.3741 7.45995 28.3741 7.58512L28.3383 13.4504C28.3383 13.5935 28.2131 13.7007 28.0879 13.7007L25.3693 13.6829C25.2083 13.6829 25.1189 13.5756 25.1189 13.4325Z" fill="#FFB4B4"/>
<path d="M35.7422 33.4246L11.5071 33.2994C10.7738 33.2994 10.1836 32.7272 10.1836 32.0298L10.2909 14.7916C10.2909 14.0942 10.899 13.522 11.6323 13.522L35.8674 13.6471C36.6007 13.6471 37.191 14.2194 37.191 14.9168L37.0837 32.155C37.0479 32.8524 36.4755 33.4246 35.7422 33.4246Z" fill="#FFB4B4"/>
<path d="M33.9553 34.855L9.70232 34.7298C9.2373 34.7298 8.79015 34.551 8.45033 34.2291C8.1105 33.9072 7.93164 33.4602 7.93164 33.0132L8.03896 15.775C8.03896 14.8272 8.84381 14.0762 9.80964 14.0762H9.82752L34.0626 14.2013C34.5455 14.2013 35.0106 14.398 35.3325 14.7378C35.6544 15.0597 35.8333 15.4888 35.8333 15.9359L35.726 33.1741C35.7081 34.0861 34.9032 34.855 33.9553 34.855ZM33.9195 33.9609C34.4025 33.9609 34.8138 33.6033 34.8138 33.1383L34.9211 15.9001C34.9211 15.6855 34.9748 15.3994 34.8317 15.2564C34.6707 15.0776 34.2951 15.0776 34.0447 15.0776L9.80964 14.9524C9.32672 14.9524 8.93324 15.31 8.93324 15.775L8.80804 32.9953C8.80804 33.2099 8.89747 33.4066 9.05844 33.5675C9.21941 33.7284 9.45192 33.8178 9.68444 33.8178L33.9195 33.9609Z" fill="#7E8BFF"/>
<path d="M36.5121 37.6804L7.17955 37.5194C6.75029 37.5194 6.39258 37.1797 6.39258 36.7505L6.42835 32.1548C6.42835 31.7436 6.78606 31.4038 7.23321 31.4038L36.5657 31.5647C36.995 31.5647 37.3527 31.9045 37.3527 32.3337L37.3169 36.9293C37.3169 37.3406 36.9592 37.6804 36.5121 37.6804Z" fill="white"/>
<path d="M36.5122 38.1275L7.16185 37.9666C6.82202 37.9666 6.50008 37.8414 6.26756 37.5911C6.03505 37.3586 5.92773 37.0725 5.92773 36.7506L5.96351 32.1549C5.96351 31.4933 6.51796 30.9569 7.19762 30.9569L36.5301 31.1178C36.87 31.1178 37.1919 31.243 37.4244 31.4933C37.6569 31.7258 37.7642 32.0119 37.7642 32.3338L37.7285 36.9294C37.7642 37.5911 37.1919 38.1275 36.5122 38.1275ZM7.2155 31.851C7.03665 31.851 6.87568 31.994 6.87568 32.1549L6.8399 36.7506C6.8399 36.8221 6.87568 36.8937 6.92933 36.9652C7.00088 37.0367 7.0903 37.0725 7.17973 37.0725L36.5122 37.2334C36.6911 37.2334 36.8521 37.0904 36.8521 36.9294L36.8878 32.3338C36.8878 32.2622 36.8521 32.1907 36.7984 32.1192C36.7269 32.0477 36.6374 32.0119 36.548 32.0119L7.2155 31.851ZM19.4851 15.024L16.7486 15.0062C16.5697 15.0062 16.3909 14.9346 16.2478 14.7916C16.1405 14.6664 16.0689 14.4876 16.0689 14.3088L16.1047 8.44349C16.1047 8.05009 16.4266 7.74609 16.8022 7.74609L19.5209 7.76398C19.6997 7.76398 19.8786 7.8355 20.0217 7.97856C20.1469 8.10373 20.2184 8.28255 20.2184 8.47925L20.1826 14.3445C20.1826 14.5234 20.1111 14.7022 19.968 14.8452C19.8428 14.9525 19.6639 15.024 19.4851 15.024ZM16.9632 14.1299H19.3062L19.342 8.64019L16.999 8.62231L16.9632 14.1299Z" fill="#7E8BFF"/>
<path d="M18.037 1.39795C18.037 1.39795 14.1916 7.22746 17.6257 8.10368C21.0597 8.97989 20.7378 3.40073 18.037 1.39795Z" fill="white"/>
<path d="M18.3053 8.64033C18.0549 8.64033 17.7866 8.60457 17.5184 8.53304C16.7314 8.33634 16.1769 7.87141 15.9265 7.20978C15.1217 5.09971 17.411 1.5412 17.6614 1.1478L17.9297 0.754395L18.3053 1.04051C19.2175 1.72002 19.9508 2.84658 20.3264 4.1162C20.6841 5.36794 20.6662 6.56603 20.2549 7.42436C19.8971 8.21117 19.1817 8.64033 18.3053 8.64033ZM18.1444 2.07766C17.4289 3.29363 16.2842 5.65405 16.7672 6.90578C16.9281 7.29919 17.2501 7.54953 17.7509 7.69259C18.5915 7.90717 19.1638 7.69259 19.4679 7.04884C20.0581 5.7971 19.5394 3.4188 18.1444 2.07766Z" fill="#7E8BFF"/>
<path d="M35.2613 18.5826C35.2613 18.7257 35.1361 18.8509 34.993 18.833C33.0435 18.6542 21.6682 18.8151 20.2373 18.8151C18.6634 18.8151 18.7528 22.1769 15.9806 21.9802C13.2083 21.8014 15.283 19.2622 14.9968 18.9939C14.7286 18.7436 10.4539 18.8509 9.18399 18.8688C9.04091 18.8688 8.93359 18.7615 8.93359 18.6184L8.95148 15.4533C8.95148 15.3997 8.96936 15.3639 8.98725 15.3281L9.29131 14.8632C9.34496 14.7917 9.41651 14.738 9.50593 14.7559L34.6532 14.899C34.7069 14.899 34.7784 14.9168 34.8142 14.9705L35.0467 15.1851C35.1003 15.2387 35.1182 15.2924 35.1182 15.3639L35.2613 18.5826Z" fill="white"/>
<path d="M16.1758 22.4451H15.9254C15.1027 22.3915 14.5482 22.1411 14.2621 21.6762C13.8149 20.9788 14.1726 20.0668 14.4052 19.4767C14.423 19.4409 14.4409 19.3873 14.4588 19.3515C13.4751 19.2621 10.6849 19.2979 9.68333 19.3158C9.32562 19.3158 9.03945 19.3337 8.89636 19.3337H8.69962C8.55653 19.3337 8.44922 19.2264 8.44922 19.0833L8.48499 15.346C8.48499 15.2923 8.50288 15.2566 8.52076 15.2208L9.02156 14.434C9.07522 14.3625 9.14676 14.3088 9.23619 14.3267L34.8127 14.4698C34.8664 14.4698 34.9379 14.4876 34.9737 14.5413L35.4745 15.0062C35.5281 15.0599 35.546 15.1135 35.546 15.185L35.6712 18.833L35.7607 18.9939L35.5997 19.2264L35.2599 19.6913C35.1168 19.888 35.0095 19.7271 34.9916 19.4946L35.0989 19.3873C35.0989 19.2621 34.7054 19.3337 34.5623 19.3158C32.4876 19.2085 25.1187 19.28 22.1497 19.2979C21.2017 19.2979 20.4863 19.3158 20.2001 19.3158C19.8066 19.3158 19.5383 19.7271 19.127 20.3887C18.6262 21.2291 17.875 22.4451 16.1758 22.4451ZM12.2946 18.3859C14.8344 18.3859 15.1206 18.4932 15.2994 18.672C15.6035 18.9581 15.4604 19.3515 15.2637 19.7986C15.1027 20.2278 14.8344 20.8715 15.0311 21.1934C15.1921 21.4437 15.6393 21.5153 15.997 21.551C17.3205 21.6404 17.8392 20.7821 18.3758 19.888C18.8229 19.1548 19.2879 18.3859 20.218 18.3859C20.5042 18.3859 21.2196 18.3859 22.1675 18.368C24.278 18.3501 27.4796 18.3144 30.234 18.3323C32.4876 18.3323 33.7753 18.3501 34.5265 18.3859C34.6696 18.3859 34.7948 18.2786 34.7769 18.1356L34.7591 15.4712L34.6875 15.3639L9.75487 15.185C9.66544 15.185 9.23619 15.2208 9.18253 15.2923L9.0931 15.4533C9.07522 15.489 9.05733 15.5427 9.05733 15.5784L9.03945 18.1534C9.03945 18.2965 9.14676 18.4038 9.28985 18.4038H9.36139C10.3809 18.3859 11.5971 18.3859 12.2946 18.3859Z" fill="#7E8BFF"/>
<path d="M26.8537 15.006L24.135 14.9882C23.9562 14.9882 23.7773 14.9166 23.6342 14.7736C23.509 14.6484 23.4375 14.4696 23.4375 14.2729L23.4733 8.4076C23.4733 8.22878 23.5448 8.04996 23.6879 7.90691C23.8131 7.78173 23.992 7.71021 24.1887 7.71021L26.9073 7.72809C27.0862 7.72809 27.265 7.79962 27.4081 7.94267C27.5333 8.06784 27.6049 8.24666 27.6049 8.44337L27.5691 14.3086C27.5691 14.702 27.2293 15.006 26.8537 15.006ZM24.3139 14.0941L26.6569 14.1119L26.6927 8.62218L24.3497 8.6043L24.3139 14.0941Z" fill="#7E8BFF"/>
<path d="M25.4237 1.38037C25.4237 1.38037 21.5783 7.20989 25.0124 8.0861C28.4464 8.96232 28.1066 3.38315 25.4237 1.38037Z" fill="white"/>
<path d="M25.692 8.62251C25.4416 8.62251 25.1734 8.58675 24.9051 8.51522C24.1181 8.31852 23.5636 7.85359 23.3132 7.19195C22.5084 5.08189 24.7978 1.52338 25.0482 1.12998L25.3164 0.736572L25.692 1.02268C26.6042 1.7022 27.3375 2.82876 27.7131 4.09838C28.0708 5.35011 28.053 6.5482 27.6416 7.40654C27.266 8.19334 26.5506 8.62251 25.692 8.62251ZM25.5132 2.04195C24.7978 3.25793 23.6531 5.61834 24.136 6.87008C24.297 7.26348 24.6189 7.51383 25.1197 7.65689C25.9603 7.87147 26.5327 7.65689 26.8367 7.01314C27.4091 5.77928 26.9083 3.3831 25.5132 2.04195Z" fill="#7E8BFF"/>
</g>
<defs>
<clipPath id="clip0_18_15101">
<rect width="42.93" height="38.625" fill="white" transform="translate(0.363281 0.36084)"/>
</clipPath>
</defs>
</svg>
