<svg width="17" height="16" viewBox="0 0 17 16" fill="none" xmlns="http://www.w3.org/2000/svg">
<g id="Frame">
<path id="Vector" d="M4.53716 0.410156C3.39402 0.411709 2.29817 0.863063 1.49005 1.66519C0.681935 2.46732 0.22754 3.55471 0.226562 4.6888L0.226563 10.7992C0.228128 11.9332 0.683086 13.0204 1.49162 13.8221C2.30016 14.6238 3.39624 15.0746 4.53938 15.0756H10.6985C11.8417 15.0741 12.9375 14.6227 13.7457 13.8206C14.5538 13.0184 15.0082 11.931 15.0091 10.797V4.6866C15.0076 3.55251 14.5526 2.46535 13.7441 1.66364C12.9356 0.86192 11.8395 0.411126 10.6963 0.410156L4.53716 0.410156ZM11.9292 2.85415C12.0101 2.85415 12.0903 2.86997 12.1651 2.9007C12.2399 2.93144 12.3078 2.97648 12.3651 3.03327C12.4223 3.09006 12.4677 3.15748 12.4987 3.23167C12.5297 3.30587 12.5456 3.38539 12.5456 3.4657C12.5456 3.54601 12.5297 3.62554 12.4987 3.69973C12.4677 3.77393 12.4223 3.84135 12.3651 3.89813C12.3078 3.95492 12.2399 3.99997 12.1651 4.0307C12.0903 4.06143 12.0101 4.07725 11.9292 4.07725C11.7657 4.07725 11.6089 4.01282 11.4933 3.89813C11.3777 3.78345 11.3128 3.6279 11.3128 3.4657C11.3128 3.30351 11.3777 3.14796 11.4933 3.03327C11.6089 2.91858 11.7657 2.85415 11.9292 2.85415ZM7.61786 4.07652C9.65637 4.07652 11.3135 5.72051 11.3135 7.74288C11.3135 9.76525 9.65637 11.4092 7.61786 11.4092C5.57934 11.4092 3.92221 9.76525 3.92221 7.74288C3.92221 5.72051 5.57934 4.07652 7.61786 4.07652ZM7.61786 5.29888C6.96449 5.29888 6.33789 5.55638 5.87589 6.01471C5.41389 6.47305 5.15434 7.09469 5.15434 7.74288C5.15434 8.39107 5.41389 9.01271 5.87589 9.47105C6.33789 9.92939 6.96449 10.1869 7.61786 10.1869C8.27122 10.1869 8.89783 9.92939 9.35983 9.47105C9.82183 9.01271 10.0814 8.39107 10.0814 7.74288C10.0814 7.09469 9.82183 6.47305 9.35983 6.01471C8.89783 5.55638 8.27122 5.29888 7.61786 5.29888Z" fill="#737373"/>
</g>
</svg>
