<svg xmlns="http://www.w3.org/2000/svg" width="8" height="9" viewBox="0 0 8 9" fill="none">
<g clip-path="url(#clip0_429_2511)">
<path fill-rule="evenodd" clip-rule="evenodd" d="M3.82987 1.0785C3.86218 1.00879 3.93297 0.964844 4.01145 0.964844C4.08993 0.964844 4.16072 1.00879 4.19303 1.0785L5.17019 3.13788C5.19634 3.19243 5.25022 3.23031 5.31021 3.23789L7.60152 3.51672C7.67848 3.52581 7.74309 3.57884 7.76772 3.65158C7.79236 3.72432 7.77078 3.80463 7.71384 3.85767L6.02732 5.40938C5.9827 5.45032 5.96112 5.51245 5.97344 5.57156L6.41202 7.80215C6.4274 7.87792 6.39665 7.9552 6.33355 8.00066C6.27045 8.04612 6.18582 8.05069 6.11811 8.01431L4.09916 6.91414C4.0453 6.88539 3.97913 6.88539 3.92528 6.91414L1.90634 8.01431C1.83863 8.05219 1.75399 8.04612 1.6909 8.00066C1.62781 7.9552 1.59704 7.87792 1.61242 7.80215L2.05099 5.57156C2.0633 5.51245 2.04329 5.45032 1.99713 5.40938L0.309039 3.85767C0.252102 3.80463 0.230559 3.72432 0.25518 3.65158C0.279801 3.57884 0.344432 3.52581 0.421373 3.51672L2.71114 3.23789C2.7727 3.23031 2.82501 3.19243 2.85118 3.13788L3.82987 1.0785Z" fill="#FFB4B4"/>
</g>
<defs>
<clipPath id="clip0_429_2511">
<rect width="7.53266" height="7.08957" fill="white" transform="translate(0.246094 0.964844)"/>
</clipPath>
</defs>
</svg>