<svg width="86" height="78" viewBox="0 0 86 78" fill="none" xmlns="http://www.w3.org/2000/svg">
<g clip-path="url(#clip0_1_4380)">
<path d="M29.8626 45.3615L12.9785 29.5181L35.8364 25.7629L45.7809 4.84106L56.3334 25.4053L79.3344 28.3379L63.0584 44.7893L67.351 67.5352L46.6394 57.1279L26.3212 68.2504L29.8626 45.3615Z" fill="#FFB4B4"/>
<path d="M20.1323 70.5392L23.6737 47.4L6.64648 31.342L29.7548 27.5868L39.7708 6.41455L50.5022 27.2291L73.7178 30.1618L57.2272 46.792L61.5913 69.7882L40.665 59.2378L20.1323 70.5392ZM11.261 32.7725L25.963 46.6132L22.9225 66.5694L40.6293 56.8774L58.658 65.9614L54.9021 46.1125L69.1033 31.7711L49.0713 29.2319L39.8065 11.2784L31.2214 29.518L11.261 32.7725Z" fill="#7E8BFF"/>
</g>
<defs>
<clipPath id="clip0_1_4380">
<rect width="85.86" height="77.25" fill="white" transform="translate(0.0605469 0.120117)"/>
</clipPath>
</defs>
</svg>
