<svg width="18" height="24" viewBox="0 0 18 24" fill="none"
    xmlns="http://www.w3.org/2000/svg">
    <g fill-rule="evenodd" clip-rule="evenodd" fill="#282828">
        <path d="M9.088 10.427a4.716 4.716 0 1 0 0-9.432 4.716 4.716 0 0 0 0 9.432Zm3.406-4.716a3.406 3.406 0 1 1-6.812 0 3.406 3.406 0 0 1 6.812 0Z"/>
        <path d="M6.678 10.227a8.537 8.537 0 0 0-5.63 5.323c-.091.252-.01.478.158.7.163.217.424.451.735.73l.008.007.144.13 6.994 5.962 7.013-5.96.004-.004c.13-.121.255-.23.37-.33l.01-.009c.235-.206.44-.384.562-.568a.735.735 0 0 0 .123-.308.724.724 0 0 0-.042-.35 8.534 8.534 0 0 0-5.63-5.324l-.004-.001a.41.41 0 0 0-.32.033 4.384 4.384 0 0 1-2.086.526 4.39 4.39 0 0 1-2.086-.526.404.404 0 0 0-.32-.033l-.003.001v.001Zm2.41 1.867c.848 0 1.637-.183 2.357-.51a7.226 7.226 0 0 1 4.322 4.079l-.034.03-.02.018-.095.082c-.13.113-.258.228-.385.345l-6.144 5.221-6.13-5.226-.141-.126-.003-.002a19.59 19.59 0 0 1-.398-.366 7.226 7.226 0 0 1 4.312-4.055c.72.327 1.51.51 2.358.51Z"/>
    </g>
</svg>