<svg xmlns="http://www.w3.org/2000/svg" width="25" height="13" viewBox="0 0 25 13" fill="none">
  <path d="M11.7792 1.06C11.9196 1.20062 11.9985 1.39125 11.9985 1.59C11.9985 1.78875 11.9196 1.97937 11.7792 2.12L7.05918 6.84L11.7792 11.56C11.8529 11.6287 11.912 11.7115 11.953 11.8035C11.9939 11.8955 12.016 11.9948 12.0178 12.0955C12.0195 12.1962 12.001 12.2962 11.9633 12.3896C11.9256 12.483 11.8694 12.5678 11.7982 12.639C11.727 12.7103 11.6422 12.7664 11.5488 12.8041C11.4554 12.8418 11.3554 12.8604 11.2547 12.8586C11.154 12.8568 11.0546 12.8348 10.9626 12.7938C10.8706 12.7528 10.7878 12.6937 10.7192 12.62L5.99918 7.9L1.27918 12.62C1.137 12.7525 0.948956 12.8246 0.754655 12.8212C0.560353 12.8177 0.374968 12.739 0.237555 12.6016C0.100142 12.4642 0.0214303 12.2788 0.018002 12.0845C0.0145738 11.8902 0.086697 11.7022 0.219177 11.56L4.93918 6.84L0.219177 2.12C0.14549 2.05134 0.086388 1.96853 0.045396 1.87654C0.00440408 1.78454 -0.0176377 1.68522 -0.0194145 1.58452C-0.0211913 1.48382 -0.00266665 1.38379 0.0350544 1.2904C0.0727754 1.19701 0.12892 1.11218 0.200139 1.04096C0.271357 0.96974 0.356191 0.913596 0.449579 0.875875C0.542968 0.838154 0.642997 0.819629 0.7437 0.821406C0.844402 0.823183 0.943716 0.845224 1.03572 0.886216C1.12771 0.927208 1.21052 0.986311 1.27918 1.06L5.99918 5.78L10.7192 1.06C10.8598 0.919547 11.0504 0.840657 11.2492 0.840657C11.4479 0.840657 11.6386 0.919547 11.7792 1.06Z" fill="#020915"/>
</svg>