<svg width="12" height="13" viewBox="0 0 12 13" fill="none" xmlns="http://www.w3.org/2000/svg">
<g clip-path="url(#clip0_1_5289)">
<path d="M2.30566 4.69092C2.30566 4.80811 2.26465 4.90967 2.18262 4.99561C2.10059 5.08154 2.00098 5.12451 1.88379 5.12451C1.75879 5.12451 1.65527 5.08154 1.57324 4.99561C1.49121 4.90967 1.4502 4.80811 1.4502 4.69092C1.4502 4.57373 1.49121 4.47412 1.57324 4.39209C1.65527 4.31006 1.75879 4.26904 1.88379 4.26904C2.00098 4.26904 2.10059 4.31006 2.18262 4.39209C2.26465 4.47412 2.30566 4.57373 2.30566 4.69092ZM3.38379 8.12451V3.83545C3.38379 3.71826 3.34082 3.61865 3.25488 3.53662C3.16895 3.45459 3.06738 3.41357 2.9502 3.41357H1.02832C0.911133 3.41357 0.80957 3.45459 0.723633 3.53662C0.637695 3.61865 0.594727 3.71826 0.594727 3.83545V8.12451C0.594727 8.2417 0.637695 8.34131 0.723633 8.42334C0.80957 8.50537 0.911133 8.54639 1.02832 8.54639H2.9502C3.06738 8.54639 3.16895 8.50537 3.25488 8.42334C3.34082 8.34131 3.38379 8.2417 3.38379 8.12451ZM10.9424 7.12842C11.0518 7.25342 11.1396 7.40576 11.2061 7.58545C11.2725 7.76514 11.3057 7.94482 11.3057 8.12451C11.3057 8.46826 11.1787 8.76904 10.9248 9.02686C10.6709 9.28467 10.3721 9.41357 10.0283 9.41357H8.16504C8.19629 9.51514 8.22754 9.59326 8.25879 9.64795C8.29004 9.70264 8.3252 9.76514 8.36426 9.83545C8.4502 10.0073 8.53418 10.1968 8.61621 10.4038C8.69824 10.6108 8.73926 10.8511 8.73926 11.1245C8.73926 11.3823 8.67676 11.7319 8.55176 12.1733C8.42676 12.6147 7.98926 12.8354 7.23926 12.8354C7.18457 12.8354 7.12988 12.8237 7.0752 12.8003C7.02051 12.7769 6.97363 12.7456 6.93457 12.7065C6.79395 12.5659 6.69434 12.3979 6.63574 12.2026C6.57715 12.0073 6.52832 11.812 6.48926 11.6167C6.4502 11.4214 6.40527 11.23 6.35449 11.0425C6.30371 10.855 6.21191 10.6948 6.0791 10.562C5.97754 10.4604 5.87012 10.3413 5.75684 10.2046C5.64355 10.0679 5.52441 9.92139 5.39941 9.76514C5.25098 9.56982 5.04785 9.32178 4.79004 9.021C4.53223 8.72021 4.34082 8.56592 4.21582 8.55811C4.10645 8.55029 4.01074 8.50537 3.92871 8.42334C3.84668 8.34131 3.80566 8.2417 3.80566 8.12451V3.83545C3.80566 3.71826 3.84863 3.61865 3.93457 3.53662C4.02051 3.45459 4.12207 3.41357 4.23926 3.41357C4.35645 3.40576 4.50879 3.37256 4.69629 3.31396C4.88379 3.25537 5.08301 3.18701 5.29395 3.10889C5.65332 2.9917 6.05371 2.86865 6.49512 2.73975C6.93652 2.61084 7.39941 2.54639 7.88379 2.54639H8.73926C9.03613 2.5542 9.2959 2.60107 9.51855 2.68701C9.74121 2.77295 9.92285 2.90186 10.0635 3.07373C10.1885 3.22217 10.2803 3.39795 10.3389 3.60107C10.3975 3.8042 10.415 4.03076 10.3916 4.28076C10.4775 4.3667 10.5518 4.4624 10.6143 4.56787C10.6768 4.67334 10.7236 4.78857 10.7549 4.91357C10.7939 5.04639 10.8135 5.1792 10.8135 5.31201C10.8135 5.44482 10.7939 5.57373 10.7549 5.69873C10.8564 5.83154 10.9307 5.97607 10.9775 6.13232C11.0244 6.28857 11.0439 6.44873 11.0361 6.61279C11.0361 6.65967 11.0303 6.72998 11.0186 6.82373C11.0068 6.91748 10.9814 7.01904 10.9424 7.12842Z" fill="black"/>
</g>
<defs>
<clipPath id="clip0_1_5289">
<rect width="10.72" height="12" fill="white" transform="matrix(1 0 0 -1 0.590088 12.73)"/>
</clipPath>
</defs>
</svg>
