<svg width="87" height="78" viewBox="0 0 87 78" fill="none" xmlns="http://www.w3.org/2000/svg">
<g clip-path="url(#clip0_1_4365)">
<path d="M52.5852 43.5733L48.6861 40.8195C47.4341 39.9254 45.7171 39.9254 44.4651 40.8195L40.566 43.5733L14.4172 62.1705C14.2383 62.2778 14.0952 62.4209 13.9521 62.5282C15.1326 64.0303 16.9569 65.0316 18.9959 65.0316H74.1553C76.1943 65.0316 78.0187 64.066 79.1991 62.5282C79.056 62.3851 78.9129 62.2778 78.7341 62.1705L52.5852 43.5733Z" fill="#B2A4FF"/>
<path d="M52.5848 43.5732L78.7337 62.1347C78.9125 62.2419 79.0556 62.385 79.1987 62.4923C80.093 61.3479 80.6653 59.8815 80.6653 58.3079V24.6541C80.6653 24.3322 80.6295 24.0104 80.5938 23.6885L52.5848 43.5732ZM40.5656 43.5732L12.6282 23.7242C12.5924 24.0461 12.5566 24.368 12.5566 24.6899V58.3437C12.5566 59.9173 13.0932 61.3836 14.0233 62.5281C14.1664 62.385 14.3094 62.2777 14.4883 62.1704L40.5656 43.5732Z" fill="#B2A4FF"/>
<path d="M20.498 36.9568V9.84781C20.498 7.45163 22.4297 5.48462 24.7548 5.48462H59.4173C61.7424 5.48462 63.6741 7.45163 63.6741 9.84781V37.1357" fill="white"/>
<path d="M63.6737 36.9568V9.84781C63.6737 7.45163 61.7421 5.48462 59.4169 5.48462H24.7187C22.3936 5.48462 20.4619 7.45163 20.4619 9.84781V36.8853L35.8078 47.6502L42.3182 44.2169L48.5782 47.5787L63.6737 36.9568Z" fill="white"/>
<path d="M77.2664 28.9458C77.2664 28.767 77.2664 28.5882 77.2306 28.4094L77.1591 27.8729L77.0518 27.3007L76.8371 26.5139C75.8355 23.5097 73.0454 21.3997 69.8617 21.3997H64.1741V23.1879H69.8617C72.4372 23.1879 74.6908 25.0476 75.299 27.5868L48.2916 46.7563L44.9291 44.3601C43.3551 43.2514 41.2446 43.2514 39.6707 44.3601L36.3082 46.7563L9.33657 27.5868C9.94468 25.0476 12.1983 23.1879 14.7738 23.1879H20.7834V21.3997H14.7738C11.5902 21.3997 8.8 23.5097 7.7984 26.5139L7.69108 26.8715L7.47645 27.8729L7.40491 28.4094C7.40491 28.5882 7.36914 28.767 7.36914 28.9458V62.5997C7.36914 64.0302 7.7984 65.4608 8.5496 66.6767L8.51382 66.7125L9.01462 67.3563L9.62274 68.1431L9.65851 68.1073C11.0178 69.4663 12.8422 70.2174 14.738 70.2174H69.8617C71.7576 70.2174 73.5819 69.4663 74.9412 68.1073L74.977 68.1431L75.5851 67.3563L76.0859 66.7125L76.0502 66.6767C76.8014 65.4608 77.2306 64.0302 77.2306 62.5997V28.9458H77.2664ZM75.4778 29.6611V62.5997C75.4778 63.601 75.2274 64.6024 74.7266 65.4965L73.1169 64.3521L49.8655 47.8292L51.7256 46.5059L75.4778 29.6611ZM34.8058 47.8649L9.94468 65.5323C9.44388 64.6382 9.19348 63.6368 9.19348 62.6354V29.6611L32.9457 46.5417L34.8058 47.8649ZM69.9333 68.3934H14.7738C13.3787 68.3934 12.0552 67.8569 11.0536 66.8913L36.8447 48.5444L40.7438 45.7906C41.7096 45.1111 42.9616 45.1111 43.9275 45.7906L47.8266 48.5444L73.6177 66.8913C72.6161 67.8569 71.2568 68.3934 69.9333 68.3934Z" fill="#7E8BFF"/>
<path d="M64.2818 37.3146H62.4932V10.0267C62.4932 8.20276 61.0266 6.73644 59.2022 6.73644H25.1479C23.3236 6.73644 21.8569 8.20276 21.8569 10.0267V37.2073H20.0684V10.0267C20.0684 7.23713 22.3577 4.94824 25.1479 4.94824H59.2022C61.9924 4.94824 64.2818 7.23713 64.2818 10.0267V37.3146Z" fill="#7E8BFF"/>
<path d="M55.8039 27.3006H28.5819C28.1526 27.3006 27.7949 26.943 27.7949 26.5138V26.4065C27.7949 25.9773 28.1526 25.6197 28.5819 25.6197H55.8039C56.2332 25.6197 56.5909 25.9773 56.5909 26.4065V26.5138C56.5909 26.943 56.2332 27.3006 55.8039 27.3006ZM55.8039 36.2058H28.5819C28.1526 36.2058 27.7949 35.8482 27.7949 35.419V35.3117C27.7949 34.8825 28.1526 34.5249 28.5819 34.5249H55.8039C56.2332 34.5249 56.5909 34.8825 56.5909 35.3117V35.419C56.5909 35.8482 56.2332 36.2058 55.8039 36.2058ZM55.8039 18.4311H28.5819C28.1526 18.4311 27.7949 18.0735 27.7949 17.6443V17.537C27.7949 17.1079 28.1526 16.7502 28.5819 16.7502H55.8039C56.2332 16.7502 56.5909 17.1079 56.5909 17.537V17.6443C56.5909 18.0735 56.2332 18.4311 55.8039 18.4311Z" fill="#7E8BFF"/>
</g>
<defs>
<clipPath id="clip0_1_4365">
<rect width="85.86" height="77.25" fill="white" transform="translate(0.389648 0.120117)"/>
</clipPath>
</defs>
</svg>
