<svg width="19" height="19" viewBox="0 0 19 19" fill="none" xmlns="http://www.w3.org/2000/svg">
<path d="M9.33572 5.39758C7.13366 5.39758 5.35747 7.17377 5.35747 9.37583C5.35747 11.5779 7.13366 13.3541 9.33572 13.3541C11.5378 13.3541 13.314 11.5779 13.314 9.37583C13.314 7.17377 11.5378 5.39758 9.33572 5.39758ZM9.33572 11.9622C7.91269 11.9622 6.74933 10.8023 6.74933 9.37583C6.74933 7.94934 7.90922 6.78945 9.33572 6.78945C10.7622 6.78945 11.9221 7.94934 11.9221 9.37583C11.9221 10.8023 10.7587 11.9622 9.33572 11.9622ZM14.4046 5.23485C14.4046 5.75074 13.9891 6.16276 13.4767 6.16276C12.9608 6.16276 12.5488 5.74728 12.5488 5.23485C12.5488 4.72242 12.9643 4.30694 13.4767 4.30694C13.9891 4.30694 14.4046 4.72242 14.4046 5.23485ZM17.0395 6.17661C16.9806 4.93363 16.6967 3.8326 15.7861 2.92546C14.879 2.01832 13.7779 1.73441 12.5349 1.67209C11.2539 1.59938 7.41411 1.59938 6.13303 1.67209C4.89351 1.73095 3.79248 2.01486 2.88188 2.922C1.97128 3.82913 1.69083 4.93016 1.62851 6.17315C1.5558 7.45422 1.5558 11.294 1.62851 12.575C1.68737 13.818 1.97128 14.9191 2.88188 15.8262C3.79248 16.7333 4.89005 17.0173 6.13303 17.0796C7.41411 17.1523 11.2539 17.1523 12.5349 17.0796C13.7779 17.0207 14.879 16.7368 15.7861 15.8262C16.6932 14.9191 16.9771 13.818 17.0395 12.575C17.1122 11.294 17.1122 7.45769 17.0395 6.17661ZM15.3845 13.9496C15.1144 14.6282 14.5916 15.151 13.9095 15.4246C12.8881 15.8297 10.4644 15.7362 9.33572 15.7362C8.20699 15.7362 5.77987 15.8262 4.76194 15.4246C4.08332 15.1545 3.5605 14.6317 3.28698 13.9496C2.88188 12.9282 2.97536 10.5046 2.97536 9.37583C2.97536 8.2471 2.88534 5.81999 3.28698 4.80206C3.55704 4.12344 4.07986 3.60062 4.76194 3.32709C5.78334 2.922 8.20699 3.01548 9.33572 3.01548C10.4644 3.01548 12.8916 2.92546 13.9095 3.32709C14.5881 3.59716 15.1109 4.11997 15.3845 4.80206C15.7895 5.82345 15.6961 8.2471 15.6961 9.37583C15.6961 10.5046 15.7895 12.9317 15.3845 13.9496Z" fill="#111111"/>
</svg>
