<svg width="15" height="15" viewBox="0 0 15 15" fill="none" xmlns="http://www.w3.org/2000/svg">
<rect x="0.787109" y="0.892212" width="13.4275" height="13.4275" rx="2.933" fill="url(#paint0_linear_18_21491)"/>
<path d="M6.38202 7.62317C6.38202 7.00466 6.88314 6.50313 7.50147 6.50313C8.1198 6.50313 8.62119 7.00466 8.62119 7.62317C8.62119 8.24168 8.1198 8.74321 7.50147 8.74321C6.88314 8.74321 6.38202 8.24168 6.38202 7.62317ZM5.77672 7.62317C5.77672 8.57603 6.54889 9.34842 7.50147 9.34842C8.45405 9.34842 9.22622 8.57603 9.22622 7.62317C9.22622 6.67031 8.45405 5.89792 7.50147 5.89792C6.54889 5.89792 5.77672 6.67031 5.77672 7.62317ZM8.89144 5.82951C8.8914 5.90926 8.91501 5.98722 8.95928 6.05354C9.00354 6.11986 9.06647 6.17156 9.14011 6.20211C9.21375 6.23265 9.29479 6.24067 9.37298 6.22514C9.45117 6.20962 9.52301 6.17125 9.5794 6.11488C9.63579 6.05852 9.67421 5.98669 9.68979 5.90849C9.70538 5.83029 9.69743 5.74922 9.66695 5.67553C9.63647 5.60185 9.58484 5.53886 9.51857 5.49453C9.4523 5.4502 9.37438 5.42652 9.29467 5.42649H9.2945C9.18765 5.42654 9.08518 5.46901 9.0096 5.54458C8.93403 5.62014 8.89153 5.72263 8.89144 5.82951V5.82951ZM6.14448 10.358C5.817 10.3431 5.63901 10.2885 5.52072 10.2424C5.3639 10.1814 5.25201 10.1086 5.13437 9.99112C5.01672 9.87361 4.9439 9.76179 4.88312 9.60493C4.83701 9.48666 4.78246 9.30856 4.76757 8.98099C4.75129 8.62683 4.74804 8.52044 4.74804 7.6232C4.74804 6.72595 4.75156 6.61986 4.76757 6.26541C4.78249 5.93784 4.83744 5.76008 4.88312 5.64147C4.94417 5.4846 5.01688 5.37268 5.13437 5.255C5.25185 5.13733 5.36363 5.06449 5.52072 5.00369C5.63895 4.95756 5.817 4.903 6.14448 4.88811C6.49853 4.87182 6.60489 4.86857 7.50147 4.86857C8.39806 4.86857 8.50452 4.87209 8.85887 4.88811C9.18635 4.90302 9.36405 4.95799 9.48263 5.00369C9.63945 5.06449 9.75134 5.13749 9.86898 5.255C9.98662 5.37252 10.0592 5.4846 10.1202 5.64147C10.1663 5.75974 10.2209 5.93784 10.2358 6.26541C10.2521 6.61986 10.2553 6.72595 10.2553 7.6232C10.2553 8.52044 10.2521 8.62653 10.2358 8.98099C10.2209 9.30856 10.166 9.4866 10.1202 9.60493C10.0592 9.76179 9.98646 9.87371 9.86898 9.99112C9.7515 10.1085 9.63945 10.1814 9.48263 10.2424C9.3644 10.2886 9.18635 10.3431 8.85887 10.358C8.50481 10.3743 8.39846 10.3776 7.50147 10.3776C6.60449 10.3776 6.49843 10.3743 6.14448 10.358V10.358ZM6.11667 4.28365C5.75909 4.29994 5.51475 4.35666 5.30137 4.43971C5.08038 4.52548 4.8933 4.64055 4.70636 4.82725C4.51942 5.01395 4.40468 5.20138 4.31893 5.42243C4.2359 5.63601 4.1792 5.88029 4.16292 6.23797C4.14637 6.59621 4.14258 6.71074 4.14258 7.62317C4.14258 8.5356 4.14637 8.65013 4.16292 9.00837C4.1792 9.36608 4.2359 9.61033 4.31893 9.82391C4.40468 10.0448 4.51945 10.2325 4.70636 10.4191C4.89328 10.6057 5.08038 10.7206 5.30137 10.8066C5.51516 10.8897 5.75909 10.9464 6.11667 10.9627C6.47499 10.979 6.5893 10.983 7.50147 10.983C8.41364 10.983 8.52814 10.9792 8.88628 10.9627C9.24388 10.9464 9.48806 10.8897 9.70158 10.8066C9.92243 10.7206 10.1096 10.6058 10.2966 10.4191C10.4835 10.2324 10.598 10.0448 10.684 9.82391C10.767 9.61033 10.824 9.36605 10.84 9.00837C10.8563 8.64986 10.8601 8.5356 10.8601 7.62317C10.8601 6.71074 10.8563 6.59621 10.84 6.23797C10.8237 5.88026 10.767 5.63588 10.684 5.42243C10.598 5.20151 10.4832 5.01425 10.2966 4.82725C10.1099 4.64026 9.92243 4.52548 9.70184 4.43971C9.48806 4.35666 9.24385 4.29967 8.88655 4.28365C8.52841 4.26736 8.41391 4.26331 7.50174 4.26331C6.58957 4.26331 6.47499 4.2671 6.11667 4.28365Z" fill="white"/>
<defs>
<linearGradient id="paint0_linear_18_21491" x1="13.9566" y1="14.3197" x2="0.529033" y2="0.892212" gradientUnits="userSpaceOnUse">
<stop stop-color="#FBE18A"/>
<stop offset="0.21" stop-color="#FCBB45"/>
<stop offset="0.38" stop-color="#F75274"/>
<stop offset="0.52" stop-color="#D53692"/>
<stop offset="0.74" stop-color="#8F39CE"/>
<stop offset="1" stop-color="#5B4FE9"/>
</linearGradient>
</defs>
</svg>
