<svg width="141" height="55" viewBox="0 0 141 55" fill="none" xmlns="http://www.w3.org/2000/svg">
<g clip-path="url(#clip0_1_7026)">
<path d="M140.999 12.0958C139.605 14.3787 138.407 17.0166 137.408 20.0072C136.408 22.9978 135.409 26.0695 134.41 29.2199C133.411 32.3702 132.329 35.4521 131.167 38.4655C130.005 41.4789 128.551 44.1853 126.811 46.5823C125.068 48.9794 122.94 50.9071 120.43 52.3681C117.92 53.8292 114.83 54.5597 111.158 54.5597H109.973V48.6014C112.111 48.6014 113.9 48.4188 115.341 48.0535C116.782 47.6883 118.013 47.1531 119.036 46.4479C120.058 45.7428 120.941 44.8879 121.685 43.886C122.429 42.8841 123.172 41.7198 123.916 40.3983L109.275 12.0958H113.26C114.881 12.0958 116.366 12.9861 117.107 14.4015L127.126 33.5319C127.683 31.797 128.205 30.062 128.696 28.327C129.184 26.592 129.728 24.8469 130.335 23.0865C130.939 21.3287 131.613 19.5354 132.357 17.7091C132.835 16.5347 133.382 15.34 133.994 14.125C134.606 12.91 135.918 12.0933 137.333 12.0933H141.002L140.999 12.0958Z" fill="black"/>
<path d="M56.5039 41.1644V40.8727L66.1224 25.7069L57.7382 12.3825V12.0908H60.0492C61.9832 12.0908 63.7752 13.0851 64.7719 14.7136L69.2803 22.072H70.1686L74.584 14.7466C75.5755 13.1004 77.3779 12.0908 79.3248 12.0908H81.3131V12.3825L73.027 25.6105L82.6454 40.8727V41.1644H80.0814C78.1241 41.1644 76.3166 40.1447 75.3277 38.4884L69.8716 29.3442H68.9834L63.5273 38.4884C62.5384 40.1473 60.7283 41.1644 58.7736 41.1644H56.5065H56.5039Z" fill="black"/>
<path d="M3.56115 50.3976C3.81678 49.9664 4.16795 49.6316 4.60691 49.3881C5.04588 49.1471 5.52873 49.0254 6.05549 49.0254C6.65455 49.0254 7.18905 49.17 7.65899 49.4617C8.12636 49.7534 8.4672 50.1618 8.67894 50.6944H7.56604C7.41886 50.4002 7.21745 50.182 6.95665 50.0375C6.69844 49.8929 6.39633 49.8219 6.05549 49.8219C5.68108 49.8219 5.34799 49.9056 5.05879 50.0679C4.76442 50.2328 4.53978 50.4687 4.37452 50.7781C4.20926 51.0876 4.12664 51.4478 4.12664 51.8561C4.12664 52.2645 4.20926 52.6247 4.37452 52.9342C4.53978 53.2436 4.76959 53.4795 5.05879 53.6495C5.35057 53.8169 5.68366 53.9006 6.05549 53.9006C6.39633 53.9006 6.69586 53.8296 6.95665 53.685C7.21745 53.5404 7.41886 53.3223 7.56604 53.0306H8.67894C8.4672 53.5632 8.12894 53.9716 7.65899 54.2582C7.19163 54.5449 6.65713 54.6894 6.05549 54.6894C5.52357 54.6894 5.04071 54.5677 4.60175 54.3267C4.16279 54.0857 3.8142 53.7459 3.55857 53.3172C3.30293 52.886 3.17383 52.399 3.17383 51.8561C3.17641 51.3133 3.30552 50.8238 3.56115 50.3951V50.3976Z" fill="black"/>
<path d="M10.5544 54.4357C10.2136 54.2454 9.94505 53.9816 9.75139 53.6367C9.55773 53.2917 9.45703 52.896 9.45703 52.442C9.45703 51.9879 9.55773 51.5998 9.75914 51.2523C9.95797 50.9048 10.2317 50.641 10.5777 50.4533C10.9237 50.2682 11.311 50.1743 11.7371 50.1743C12.1631 50.1743 12.5504 50.2656 12.8964 50.4533C13.2424 50.6385 13.5161 50.9048 13.715 51.2523C13.9138 51.5998 14.0171 51.9955 14.0171 52.442C14.0171 52.8884 13.9138 53.2841 13.7072 53.6316C13.5007 53.9791 13.2218 54.2454 12.868 54.4357C12.5143 54.6259 12.1244 54.7198 11.6932 54.7198C11.2619 54.7198 10.8927 54.6259 10.5519 54.4357H10.5544ZM12.3697 53.761C12.5788 53.6468 12.7467 53.4819 12.8758 53.2562C13.0075 53.0304 13.0694 52.759 13.0694 52.442C13.0694 52.1249 13.0075 51.851 12.8835 51.6303C12.757 51.4096 12.5943 51.2422 12.3878 51.1306C12.1812 51.0164 11.9617 50.9632 11.7241 50.9632C11.4866 50.9632 11.2645 51.019 11.0631 51.1306C10.8591 51.2422 10.7016 51.4096 10.5803 51.6303C10.4589 51.851 10.4021 52.1224 10.4021 52.442C10.4021 52.9138 10.526 53.2816 10.7713 53.5403C11.0166 53.7965 11.3265 53.9258 11.6983 53.9258C11.9385 53.9258 12.1631 53.87 12.3697 53.761Z" fill="black"/>
<path d="M18.1374 50.3899C18.4137 50.5345 18.6332 50.7476 18.7907 51.0266C18.9482 51.3107 19.0256 51.648 19.0256 52.0488V54.6462H18.109V52.1858C18.109 51.7926 18.0083 51.4908 17.8069 51.2802C17.6081 51.0697 17.3343 50.9657 16.9883 50.9657C16.6423 50.9657 16.366 51.0697 16.1646 51.2802C15.9607 51.4908 15.86 51.7926 15.86 52.1858V54.6462H14.9355V50.2453H15.86V50.7501C16.0123 50.57 16.2034 50.428 16.4383 50.3265C16.6733 50.225 16.9238 50.1743 17.1872 50.1743C17.5409 50.1743 17.8559 50.2453 18.1374 50.3899Z" fill="black"/>
<path d="M22.0775 50.9886H21.2512V54.6463H20.3164V50.9886H19.7871V50.2454H20.3164V49.9334C20.3164 49.4261 20.4533 49.0583 20.727 48.8275C20.9981 48.5967 21.4293 48.48 22.0129 48.48V49.2384C21.7315 49.2384 21.5352 49.2917 21.4216 49.3931C21.308 49.4971 21.2512 49.6772 21.2512 49.9309V50.2429H22.0775V50.9861V50.9886Z" fill="black"/>
<path d="M22.9419 49.4944C22.8283 49.3828 22.7715 49.2458 22.7715 49.081C22.7715 48.9161 22.8283 48.7766 22.9419 48.665C23.0555 48.5508 23.195 48.4976 23.3628 48.4976C23.5306 48.4976 23.6649 48.5534 23.7759 48.665C23.8895 48.7766 23.9464 48.9135 23.9464 49.081C23.9464 49.2484 23.8895 49.3853 23.7759 49.4944C23.6623 49.606 23.5255 49.6618 23.3628 49.6618C23.2001 49.6618 23.0555 49.606 22.9419 49.4944ZM23.8198 50.2452V54.6461H22.8954V50.2452H23.8198Z" fill="black"/>
<path d="M25.008 51.2526C25.1939 50.9101 25.447 50.6463 25.7697 50.4561C26.0925 50.2659 26.4488 50.172 26.8439 50.172C27.1357 50.172 27.4223 50.2354 27.7089 50.3597C27.9955 50.4865 28.2176 50.6514 28.3854 50.8594V48.7363H29.3202V54.6464H28.3854V53.9844C28.2331 54.1975 28.0265 54.3725 27.7554 54.512C27.4894 54.6515 27.1822 54.72 26.8362 54.72C26.4463 54.72 26.0925 54.6236 25.7697 54.4283C25.447 54.233 25.1939 53.9641 25.008 53.6141C24.8221 53.264 24.7266 52.8709 24.7266 52.427C24.7266 51.9831 24.8195 51.5925 25.008 51.2526ZM28.1995 51.6508C28.0704 51.4276 27.9052 51.2576 27.7012 51.1384C27.4972 51.0192 27.2751 50.9634 27.0376 50.9634C26.8 50.9634 26.578 51.0217 26.374 51.1333C26.17 51.25 26.0021 51.4149 25.8756 51.6381C25.7465 51.8613 25.6871 52.12 25.6871 52.4244C25.6871 52.7288 25.7517 52.9951 25.8756 53.2234C26.0047 53.4517 26.1726 53.6267 26.3791 53.746C26.5883 53.8677 26.8078 53.9235 27.0402 53.9235C27.2725 53.9235 27.4998 53.8652 27.7038 53.7485C27.9103 53.6293 28.0756 53.4593 28.2021 53.2336C28.3312 53.0078 28.3906 52.7415 28.3906 52.4371C28.3906 52.1353 28.3235 51.8715 28.1995 51.6508Z" fill="black"/>
<path d="M34.6033 52.7871H31.1898C31.2156 53.1397 31.3499 53.4187 31.5874 53.6318C31.825 53.8449 32.1193 53.9514 32.4653 53.9514C32.9637 53.9514 33.3123 53.7459 33.5188 53.3375H34.5156C34.3787 53.7409 34.136 54.0731 33.7822 54.3319C33.4285 54.5881 32.9869 54.7174 32.4653 54.7174C32.0393 54.7174 31.6545 54.6236 31.3189 54.4333C30.9806 54.2431 30.7172 53.9793 30.5236 53.6343C30.3325 53.2894 30.2344 52.8937 30.2344 52.4396C30.2344 51.9856 30.3273 51.5899 30.5158 51.2449C30.7017 50.9 30.9625 50.6362 31.3034 50.4485C31.6416 50.2607 32.029 50.1694 32.4705 50.1694C32.912 50.1694 33.2684 50.2582 33.5989 50.4408C33.9294 50.6209 34.185 50.8771 34.3684 51.2043C34.5517 51.5315 34.6447 51.907 34.6447 52.3331C34.6369 52.498 34.6266 52.6476 34.6059 52.7821L34.6033 52.7871ZM33.6686 52.0515C33.6634 51.7167 33.5395 51.4478 33.3045 51.2449C33.067 51.042 32.77 50.9405 32.4189 50.9405C32.0987 50.9405 31.8276 51.0395 31.6003 51.2398C31.3731 51.4402 31.2388 51.7091 31.1949 52.0515H33.6712H33.6686Z" fill="black"/>
<path d="M38.7461 50.3899C39.0224 50.5345 39.2419 50.7476 39.3994 51.0266C39.5569 51.3081 39.6344 51.648 39.6344 52.0488V54.6462H38.7177V52.1858C38.7177 51.7926 38.617 51.4908 38.4182 51.2802C38.2168 51.0697 37.9431 50.9657 37.5997 50.9657C37.2562 50.9657 36.9774 51.0697 36.776 51.2802C36.572 51.4908 36.4713 51.7926 36.4713 52.1858V54.6462H35.5469V50.2453H36.4713V50.7501C36.6236 50.57 36.8147 50.428 37.0497 50.3265C37.2846 50.2276 37.5351 50.1743 37.7985 50.1743C38.1522 50.1743 38.4673 50.2453 38.7461 50.3899Z" fill="black"/>
<path d="M40.7847 51.2498C40.9706 50.9048 41.2314 50.641 41.562 50.4533C41.8925 50.2656 42.272 50.1743 42.6981 50.1743C43.2403 50.1743 43.687 50.3011 44.0408 50.5548C44.3946 50.8059 44.6347 51.1686 44.7586 51.6354H43.7619C43.6819 51.4172 43.5502 51.2473 43.372 51.123C43.1939 50.9987 42.9692 50.9403 42.7007 50.9403C42.3211 50.9403 42.0216 51.0722 41.7969 51.336C41.5723 51.6024 41.4613 51.9676 41.4613 52.442C41.4613 52.9163 41.5723 53.2841 41.7969 53.553C42.0216 53.8193 42.3211 53.9512 42.7007 53.9512C43.2378 53.9512 43.5915 53.7204 43.7645 53.2562H44.7612C44.6295 53.7026 44.3868 54.0603 44.0305 54.3215C43.6741 54.5853 43.23 54.7172 42.6981 54.7172C42.272 54.7172 41.8925 54.6234 41.562 54.4331C41.2314 54.2429 40.9732 53.9791 40.7847 53.6341C40.5988 53.2892 40.5059 52.8935 40.5059 52.4394C40.5059 51.9854 40.5988 51.5897 40.7847 51.2447V51.2498Z" fill="black"/>
<path d="M49.7485 52.7871H46.3323C46.3582 53.1397 46.4924 53.4187 46.73 53.6318C46.9675 53.8449 47.2619 53.9514 47.6079 53.9514C48.1063 53.9514 48.4549 53.7459 48.6614 53.3375H49.6581C49.5213 53.7409 49.276 54.0731 48.9248 54.3319C48.5711 54.5881 48.1295 54.7174 47.6079 54.7174C47.1819 54.7174 46.7971 54.6236 46.4614 54.4333C46.1232 54.2431 45.8598 53.9793 45.6662 53.6343C45.4751 53.2894 45.377 52.8937 45.377 52.4396C45.377 51.9856 45.4699 51.5899 45.6558 51.2449C45.8417 50.9 46.1051 50.6362 46.4434 50.4485C46.7816 50.2607 47.169 50.1694 47.6079 50.1694C48.0469 50.1694 48.4058 50.2582 48.7363 50.4408C49.0668 50.6209 49.3225 50.8771 49.5084 51.2043C49.6917 51.5315 49.7821 51.907 49.7821 52.3331C49.7821 52.498 49.7692 52.6476 49.7485 52.7821V52.7871ZM48.8138 52.0515C48.8086 51.7167 48.6847 51.4478 48.4471 51.2449C48.2096 51.042 47.9126 50.9405 47.5614 50.9405C47.2413 50.9405 46.9701 51.0395 46.7429 51.2398C46.5157 51.4402 46.3814 51.7091 46.3375 52.0515H48.8138Z" fill="black"/>
<path d="M54.6712 50.9886H53.8449V54.6463H52.9102V50.9886H52.3809V50.2454H52.9102V49.9334C52.9102 49.4261 53.047 49.0583 53.3208 48.8275C53.5919 48.5967 54.0231 48.48 54.6067 48.48V49.2384C54.3252 49.2384 54.129 49.2917 54.0154 49.3931C53.9017 49.4971 53.8449 49.6772 53.8449 49.9309V50.2429H54.6712V50.9861V50.9886Z" fill="black"/>
<path d="M56.9543 50.3619C57.179 50.2351 57.4449 50.1768 57.7548 50.1768V51.1178H57.5198C57.1583 51.1178 56.882 51.2066 56.6961 51.3892C56.5102 51.5693 56.4146 51.8864 56.4146 52.3328V54.6486H55.4902V50.2478H56.4146V50.887C56.5515 50.6638 56.7297 50.4913 56.9543 50.3645V50.3619Z" fill="black"/>
<path d="M59.4001 54.4357C59.0593 54.2454 58.7908 53.9816 58.5971 53.6367C58.4034 53.2917 58.3027 52.896 58.3027 52.442C58.3027 51.9879 58.4034 51.5998 58.6048 51.2523C58.8063 50.9048 59.0774 50.641 59.4234 50.4533C59.7694 50.2682 60.1567 50.1743 60.5828 50.1743C61.0088 50.1743 61.3961 50.2656 61.7421 50.4533C62.0881 50.6385 62.3618 50.9048 62.5607 51.2523C62.7595 51.5998 62.8602 51.9955 62.8602 52.442C62.8602 52.8884 62.7595 53.2841 62.5503 53.6316C62.3412 53.9791 62.0649 54.2454 61.7112 54.4357C61.3574 54.6259 60.9675 54.7198 60.5363 54.7198C60.1051 54.7198 59.7384 54.6259 59.3976 54.4357H59.4001ZM61.2154 53.761C61.4245 53.6468 61.5924 53.4819 61.7215 53.2562C61.8532 53.033 61.9151 52.759 61.9151 52.442C61.9151 52.1249 61.8532 51.851 61.7292 51.6303C61.6027 51.4096 61.4374 51.2422 61.2335 51.1306C61.0295 51.0164 60.8074 50.9632 60.5673 50.9632C60.3271 50.9632 60.1076 51.019 59.9062 51.1306C59.7023 51.2422 59.5447 51.4096 59.4234 51.6303C59.3046 51.851 59.2452 52.1224 59.2452 52.442C59.2452 52.9138 59.3692 53.2816 59.6145 53.5403C59.8598 53.7965 60.1696 53.9258 60.544 53.9258C60.7893 53.9258 61.0114 53.87 61.218 53.761H61.2154Z" fill="black"/>
<path d="M70.1398 50.3898C70.4161 50.5344 70.6381 50.7475 70.7957 51.029C70.9557 51.3131 71.0358 51.6505 71.0358 52.0512V54.6486H70.1191V52.1882C70.1191 51.7951 70.0184 51.4932 69.8196 51.2827C69.6208 51.0722 69.3445 50.9682 69.0011 50.9682C68.6576 50.9682 68.3788 51.0722 68.1774 51.2827C67.9734 51.4932 67.8727 51.7951 67.8727 52.1882V54.6486H66.956V52.1882C66.956 51.7951 66.8553 51.4932 66.6565 51.2827C66.4551 51.0722 66.1814 50.9682 65.838 50.9682C65.4945 50.9682 65.2157 51.0722 65.0143 51.2827C64.8103 51.4932 64.7096 51.7951 64.7096 52.1882V54.6486H63.7852V50.2478H64.7096V50.7525C64.8619 50.5725 65.053 50.4304 65.2854 50.329C65.5178 50.23 65.7657 50.1768 66.0316 50.1768C66.3879 50.1768 66.7055 50.2503 66.9896 50.4C67.271 50.5496 67.4879 50.7652 67.6377 51.0468C67.7746 50.7805 67.9837 50.5699 68.2703 50.4127C68.5595 50.2554 68.8642 50.1768 69.1947 50.1768C69.5459 50.1793 69.8609 50.2503 70.1398 50.3949V50.3898Z" fill="black"/>
<path d="M81.6684 49.0962L79.9952 54.6461H78.9495L77.7643 50.4456L76.5042 54.6461L75.4662 54.6537L73.8652 49.0962H74.8464L76.0136 53.6163L77.2814 49.0962H78.3194L79.4969 53.5934L80.6743 49.0962H81.6659H81.6684Z" fill="black"/>
<path d="M82.479 49.4944C82.3654 49.3828 82.3086 49.2458 82.3086 49.081C82.3086 48.9161 82.3654 48.7766 82.479 48.665C82.5926 48.5508 82.7321 48.4976 82.8999 48.4976C83.0677 48.4976 83.1994 48.5534 83.313 48.665C83.4267 48.7766 83.4835 48.9135 83.4835 49.081C83.4835 49.2484 83.4267 49.3853 83.313 49.4944C83.1994 49.606 83.0626 49.6618 82.8999 49.6618C82.7372 49.6618 82.59 49.606 82.479 49.4944ZM83.3544 50.2452V54.6461H82.43V50.2452H83.3544Z" fill="black"/>
<path d="M85.6516 50.9884V53.4235C85.6516 53.5883 85.6903 53.7075 85.7678 53.7786C85.8452 53.8496 85.9821 53.8851 86.1706 53.8851H86.7386V54.6435H86.0079C85.5922 54.6435 85.272 54.5471 85.0499 54.3569C84.8279 54.1641 84.7168 53.8521 84.7168 53.4235V50.9884H84.1875V50.2452H84.7168V49.1494H85.6516V50.2452H86.7386V50.9884H85.6516Z" fill="black"/>
<path d="M90.8169 50.3901C91.0828 50.5347 91.2946 50.7478 91.4495 51.0268C91.6044 51.3084 91.6819 51.6483 91.6819 52.049V54.6464H90.7652V52.186C90.7652 51.7928 90.6645 51.491 90.4631 51.2805C90.2617 51.0699 89.9906 50.9659 89.6446 50.9659C89.2986 50.9659 89.0223 51.0699 88.8209 51.2805C88.6169 51.491 88.5162 51.7928 88.5162 52.186V54.6464H87.5918V48.7363H88.5162V50.7579C88.6737 50.5728 88.8699 50.4282 89.1127 50.3267C89.3554 50.2278 89.6162 50.1745 89.9054 50.1745C90.2462 50.1745 90.5509 50.2456 90.8169 50.3901Z" fill="black"/>
<path d="M92.9087 49.4944C92.7951 49.3828 92.7383 49.2458 92.7383 49.081C92.7383 48.9161 92.7951 48.7766 92.9087 48.665C93.0223 48.5508 93.1618 48.4976 93.3296 48.4976C93.4974 48.4976 93.6317 48.5534 93.7427 48.665C93.8563 48.7766 93.9132 48.9135 93.9132 49.081C93.9132 49.2484 93.8563 49.3853 93.7427 49.4944C93.6291 49.606 93.4923 49.6618 93.3296 49.6618C93.1669 49.6618 93.0197 49.606 92.9087 49.4944ZM93.7841 50.2452V54.6461H92.8596V50.2452H93.7841Z" fill="black"/>
<path d="M98.2018 50.3899C98.4781 50.5345 98.6976 50.7476 98.8551 51.0266C99.0126 51.3107 99.0901 51.648 99.0901 52.0488V54.6462H98.1734V52.1858C98.1734 51.7926 98.0727 51.4908 97.8713 51.2802C97.6725 51.0697 97.3988 50.9657 97.0528 50.9657C96.7068 50.9657 96.4305 51.0697 96.2291 51.2802C96.0251 51.4908 95.9244 51.7926 95.9244 52.1858V54.6462H95V50.2453H95.9244V50.7501C96.0767 50.57 96.2678 50.428 96.5054 50.3265C96.7404 50.2276 96.9908 50.1743 97.2542 50.1743C97.6054 50.1743 97.9204 50.2453 98.2018 50.3899Z" fill="black"/>
<path d="M58.0343 26.6302C58.0343 21.7321 56.9188 17.9553 54.7188 15.4035C52.5499 12.8848 49.3532 11.6089 45.2218 11.6089C41.0903 11.6089 37.558 12.9685 35.2134 15.6546C32.9566 18.2368 31.7637 22.0137 31.7637 26.5794C31.7637 31.1452 32.9592 34.9779 35.2211 37.5727C37.5812 40.2766 40.9767 41.6489 45.3199 41.6489C54.1353 41.6489 56.8078 35.8935 57.616 32.1978H51.9095C50.9644 35.5131 48.5759 37.4078 45.3225 37.4078C40.8089 37.4078 37.9995 34.0723 37.62 28.2561L37.5967 27.9238H58.0343V26.6302ZM37.6329 24.1672L37.669 23.8222C38.2293 18.5894 40.8941 15.7054 45.1727 15.7054C49.4513 15.7054 51.8759 18.5945 52.1315 23.8375L52.147 24.1672H37.6329Z" fill="black"/>
<path d="M29.865 41.1442H25.0519C24.0603 41.1442 23.1566 40.6116 22.6763 39.7593C21.801 38.2196 21.4291 36.406 21.4291 33.9202V8.79599L21.127 8.67424C19.4693 8.03503 17.6747 7.68499 16.0738 7.68499C12.433 7.68499 10.5842 9.18661 10.4163 12.2761L10.3879 12.7733H16.3294V18.0822H10.4163V37.5855C10.4163 39.5488 8.79733 41.1392 6.79876 41.1392C6.67998 41.1544 6.55604 41.1645 6.4321 41.1645H1.61383C2.82227 39.7517 3.71569 38.0827 4.10559 35.4193V18.0822H0V12.7733H4.08752L4.10559 12.3218C4.134 11.6724 4.20888 11.0662 4.31991 10.4955C4.9577 7.30198 6.88139 5.29052 9.26211 4.17698C10.9508 3.38305 12.8642 3.03809 14.7182 3.03809C17.8451 3.03809 20.2259 3.80158 21.1064 4.12879L21.1606 4.15162L27.1615 4.16176V32.1193C27.1615 36.8372 28.2279 39.2241 29.8675 41.1417L29.865 41.1442Z" fill="black"/>
<path d="M106.312 12.2964C102.354 12.2 98.4756 13.1411 95.0775 15.0384C93.9646 13.2222 92.8466 11.1677 91.8499 9.33883C91.6898 9.04205 91.5297 8.75035 91.3722 8.46626C90.9229 7.64697 91.5271 6.65011 92.4747 6.65011L106.715 6.63743L106.63 0.719727L88.8572 0.752701C86.9954 0.778067 85.3403 1.74194 84.4211 3.33488C83.5044 4.92274 83.5173 6.81245 84.452 8.3927C85.0718 9.43775 85.7793 10.7415 86.5487 12.1417C87.6849 14.2292 88.9682 16.5781 90.2799 18.6682C88.9785 19.9669 87.8346 21.4279 86.8612 23.0259C83.476 28.624 82.8485 34.8943 85.268 39.0111C86.9516 41.8722 89.9029 43.4424 93.5876 43.4424C93.6496 43.4424 93.7116 43.4424 93.771 43.4373C98.8345 43.3713 101.109 40.9084 102.129 38.8487C104.908 33.2582 101.233 24.6011 98.393 19.9592C100.727 18.7214 103.327 18.1355 106.142 18.2014L106.757 18.2192L106.922 12.3015L106.307 12.2888L106.312 12.2964ZM96.9108 36.1017C96.7198 36.4263 96.1104 37.4967 93.6883 37.5297C92.0926 37.5475 91.132 37.0579 90.4865 36.0585C89.5027 34.5341 89.8539 29.6716 92.0358 26.0672C92.3869 25.4889 92.9395 24.662 93.709 23.7742C95.8961 27.6145 99.0798 32.4516 96.9134 36.1067L96.9108 36.1017Z" fill="black"/>
</g>
<defs>
<clipPath id="clip0_1_7026">
<rect width="141" height="54" fill="white" transform="translate(0 0.719727)"/>
</clipPath>
</defs>
</svg>
