<svg xmlns="http://www.w3.org/2000/svg" width="50" height="33" viewBox="0 0 50 33" fill="none">
  <path d="M27.6277 11.6394H22.0713V21.7463H27.6277V11.6394Z" fill="#FF5F00"/>
  <path d="M22.4242 16.6928C22.4233 15.7195 22.6412 14.7587 23.0614 13.8831C23.4816 13.0076 24.0931 12.2403 24.8495 11.6394C23.9128 10.8941 22.7877 10.4306 21.603 10.3018C20.4183 10.1731 19.2217 10.3844 18.15 10.9115C17.0783 11.4386 16.1747 12.2603 15.5426 13.2827C14.9104 14.305 14.5752 15.4868 14.5752 16.6928C14.5752 17.8989 14.9104 19.0807 15.5426 20.103C16.1747 21.1254 17.0783 21.9471 18.15 22.4742C19.2217 23.0013 20.4183 23.2126 21.603 23.0838C22.7877 22.9551 23.9128 22.4916 24.8495 21.7463C24.0931 21.1454 23.4816 20.3781 23.0614 19.5026C22.6412 18.627 22.4233 17.6662 22.4242 16.6928Z" fill="#EB001B"/>
  <path d="M35.1236 16.6928C35.1236 17.8989 34.7884 19.0806 34.1563 20.103C33.5242 21.1253 32.6207 21.947 31.549 22.4742C30.4773 23.0013 29.2807 23.2126 28.096 23.0838C26.9113 22.9551 25.7863 22.4916 24.8495 21.7463C25.6053 21.1448 26.2163 20.3773 26.6365 19.502C27.0566 18.6266 27.2749 17.6661 27.2749 16.6928C27.2749 15.7196 27.0566 14.7591 26.6365 13.8837C26.2163 13.0083 25.6053 12.2409 24.8495 11.6394C25.7863 10.8941 26.9113 10.4306 28.096 10.3018C29.2807 10.1731 30.4773 10.3844 31.549 10.9115C32.6207 11.4387 33.5242 12.2604 34.1563 13.2827C34.7884 14.305 35.1236 15.4868 35.1236 16.6928Z" fill="#F79E1B"/>
  <path d="M34.5177 20.6758V20.4689H34.6002V20.4268H34.3902V20.4689H34.4727V20.6758H34.5177ZM34.9253 20.6758V20.4263H34.861L34.7869 20.5979L34.7129 20.4263H34.6485V20.6758H34.694V20.4876L34.7634 20.6499H34.8105L34.8799 20.4872V20.6758H34.9253Z" fill="#F79E1B"/>
  <rect x="0.849609" y="1.16504" width="48" height="31" rx="3.5" stroke="#D9D3D0"/>
</svg>