<svg width="172" height="21" viewBox="0 0 172 21" fill="none" xmlns="http://www.w3.org/2000/svg">
<g clip-path="url(#clip0_1_2824)">
<path d="M58.6555 6.11768C58.8305 4.80518 58.6555 3.93018 57.9536 3.11768C57.1924 2.24268 55.8468 1.80518 54.1505 1.80518H49.1768C48.8843 1.80518 48.5336 2.11768 48.4743 2.43018L46.4268 16.3052C46.4268 16.5552 46.6024 16.8677 46.8949 16.8677H49.9374L49.7618 18.2427C49.703 18.4927 49.8786 18.6802 50.1124 18.6802H52.6874C52.9805 18.6802 53.2724 18.4927 53.3311 18.1802V17.9927L53.8574 14.7427V14.6177C53.9161 14.3052 54.2086 14.0552 54.5011 14.0552H54.853C57.368 14.0552 59.2993 12.9927 59.8843 9.86768C60.1768 8.55518 60.0605 7.49268 59.358 6.74268C59.1824 6.49268 58.8893 6.30518 58.6555 6.11768Z" fill="#009CDE"/>
<path d="M58.6555 6.11768C58.8305 4.80518 58.6555 3.93018 57.9536 3.11768C57.1924 2.24268 55.8468 1.80518 54.1505 1.80518H49.1768C48.8843 1.80518 48.5336 2.11768 48.4743 2.43018L46.4268 16.3052C46.4268 16.5552 46.6024 16.8677 46.8949 16.8677H49.9374L50.7568 11.6802L50.698 11.8677C50.7568 11.4927 51.0493 11.2427 51.3999 11.2427H52.8624C55.7299 11.2427 57.9536 9.99268 58.6555 6.49268C58.5974 6.30518 58.6555 6.24268 58.6555 6.11768Z" fill="#012169"/>
<path d="M51.518 6.11768C51.5755 5.93018 51.693 5.74268 51.8686 5.61768C51.9849 5.61768 52.0436 5.55518 52.1605 5.55518H56.0224C56.4911 5.55518 56.958 5.61768 57.3105 5.68018C57.4268 5.68018 57.5443 5.68018 57.6611 5.74268C57.778 5.80518 57.8949 5.80518 57.9536 5.86768C58.0118 5.86768 58.0699 5.86768 58.1293 5.86768C58.3043 5.93018 58.4799 6.05518 58.6555 6.11768C58.8305 4.80518 58.6555 3.93018 57.9536 3.05518C57.2511 2.18018 55.9061 1.80518 54.2086 1.80518H49.1768C48.8843 1.80518 48.5336 2.05518 48.4743 2.43018L46.4268 16.3052C46.4268 16.5552 46.6024 16.8677 46.8949 16.8677H49.9374L50.7568 11.6802L51.518 6.11768Z" fill="#003087"/>
</g>
<g clip-path="url(#clip1_1_2824)">
<path d="M71.7201 3.25342H66.8451C66.5326 3.25342 66.2201 3.50342 66.1576 3.81592L64.2201 16.3159C64.1576 16.5659 64.3451 16.7534 64.5951 16.7534H66.9076C67.2201 16.7534 67.5326 16.5034 67.5951 16.1909L68.0951 12.8159C68.1576 12.5034 68.4076 12.2534 68.7826 12.2534H70.3451C73.5326 12.2534 75.4076 10.6909 75.9076 7.62842C76.0951 6.31592 75.9076 5.25342 75.2826 4.50342C74.5951 3.69092 73.3451 3.25342 71.7201 3.25342ZM72.2826 7.81592C72.0326 9.56592 70.6576 9.56592 69.4076 9.56592H68.6576L69.1576 6.31592C69.1576 6.12842 69.3451 6.00342 69.5326 6.00342H69.8451C70.7201 6.00342 71.5326 6.00342 71.9701 6.50342C72.2826 6.75342 72.4076 7.19092 72.2826 7.81592Z" fill="#003087"/>
<path d="M86.2198 7.75342H83.9073C83.7198 7.75342 83.5323 7.87842 83.5323 8.06592L83.4073 8.69092L83.2198 8.44092C82.7198 7.69092 81.5948 7.44092 80.4698 7.44092C77.9073 7.44092 75.7198 9.37842 75.2823 12.1284C75.0323 13.5034 75.3448 14.8159 76.1573 15.6909C76.8448 16.5034 77.9073 16.8784 79.0948 16.8784C81.1573 16.8784 82.3448 15.5659 82.3448 15.5659L82.2198 16.1909C82.1573 16.4409 82.3448 16.6909 82.5948 16.6909H84.7198C85.0323 16.6909 85.3448 16.4409 85.4073 16.1284L86.6573 8.12842C86.7198 8.00342 86.4698 7.75342 86.2198 7.75342ZM83.0323 12.2534C82.7823 13.5659 81.7823 14.5034 80.4073 14.5034C79.7198 14.5034 79.2198 14.3159 78.8448 13.8784C78.4698 13.4409 78.3448 12.8784 78.4698 12.2534C78.6573 10.9409 79.7823 10.0034 81.0948 10.0034C81.7823 10.0034 82.2823 10.2534 82.6573 10.6284C82.9698 11.0659 83.0948 11.6284 83.0323 12.2534Z" fill="#003087"/>
<path d="M98.6573 7.75342H96.3448C96.0948 7.75342 95.9073 7.87842 95.7823 8.06592L92.5323 12.8159L91.1573 8.25342C91.0948 7.94092 90.7823 7.75342 90.5323 7.75342H88.2198C87.9698 7.75342 87.7198 8.00342 87.8448 8.31592L90.4073 15.8784L87.9698 19.2534C87.7823 19.5034 87.9698 19.8784 88.2823 19.8784H90.5948C90.8448 19.8784 91.0323 19.7534 91.1573 19.5659L98.9698 8.31592C99.1573 8.12842 98.9698 7.75342 98.6573 7.75342Z" fill="#003087"/>
<path d="M106.408 3.25342H101.533C101.22 3.25342 100.908 3.50342 100.845 3.81592L98.9076 16.2534C98.8451 16.5034 99.0326 16.6909 99.2826 16.6909H101.783C102.033 16.6909 102.22 16.5034 102.22 16.3159L102.783 12.7534C102.845 12.4409 103.095 12.1909 103.47 12.1909H105.033C108.22 12.1909 110.095 10.6284 110.595 7.56592C110.783 6.25342 110.595 5.19092 109.97 4.44092C109.22 3.69092 108.033 3.25342 106.408 3.25342ZM106.97 7.81592C106.72 9.56592 105.345 9.56592 104.095 9.56592H103.345L103.845 6.31592C103.845 6.12842 104.033 6.00342 104.22 6.00342H104.533C105.408 6.00342 106.22 6.00342 106.658 6.50342C106.97 6.75342 107.033 7.19092 106.97 7.81592Z" fill="#009CDE"/>
<path d="M120.907 7.75342H118.595C118.407 7.75342 118.22 7.87842 118.22 8.06592L118.095 8.69092L117.907 8.44092C117.407 7.69092 116.282 7.44092 115.157 7.44092C112.595 7.44092 110.407 9.37842 109.97 12.1284C109.72 13.5034 110.032 14.8159 110.845 15.6909C111.532 16.5034 112.595 16.8784 113.782 16.8784C115.845 16.8784 117.032 15.5659 117.032 15.5659L116.907 16.1909C116.845 16.4409 117.032 16.6909 117.282 16.6909H119.407C119.72 16.6909 120.032 16.4409 120.095 16.1284L121.345 8.12842C121.345 8.00342 121.157 7.75342 120.907 7.75342ZM117.657 12.2534C117.407 13.5659 116.407 14.5034 115.032 14.5034C114.345 14.5034 113.845 14.3159 113.47 13.8784C113.095 13.4409 112.97 12.8784 113.095 12.2534C113.282 10.9409 114.407 10.0034 115.72 10.0034C116.407 10.0034 116.907 10.2534 117.282 10.6284C117.657 11.0659 117.782 11.6284 117.657 12.2534Z" fill="#009CDE"/>
<path d="M123.658 3.56592L121.658 16.2534C121.595 16.5034 121.783 16.6909 122.033 16.6909H124.033C124.345 16.6909 124.658 16.4409 124.72 16.1284L126.72 3.69092C126.783 3.44092 126.595 3.25342 126.345 3.25342H124.095C123.845 3.25342 123.72 3.37842 123.658 3.56592Z" fill="#009CDE"/>
</g>
<defs>
<clipPath id="clip0_1_2824">
<rect width="15" height="20" fill="white" transform="translate(45.5898 0.180176)"/>
</clipPath>
<clipPath id="clip1_1_2824">
<rect width="62.5" height="20" fill="white" transform="translate(64.2197 0.180176)"/>
</clipPath>
</defs>
</svg>
