<svg width="83" height="25" viewBox="0 0 83 25" fill="none" xmlns="http://www.w3.org/2000/svg">
<g clip-path="url(#clip0_1_2796)">
<path d="M22.1039 9.42795C21.4899 8.13995 20.3259 7.30795 18.5719 7.30795C18.0335 7.31734 17.5044 7.45027 17.0256 7.69647C16.5467 7.94267 16.1308 8.29557 15.8099 8.72795L15.7458 8.80595V3.75795C15.7458 3.72878 15.7343 3.7008 15.7136 3.68017C15.693 3.65954 15.665 3.64795 15.6359 3.64795H13.1559C13.127 3.64847 13.0996 3.66029 13.0794 3.68087C13.0592 3.70144 13.0478 3.72912 13.0479 3.75795V18.238C13.0479 18.2666 13.0592 18.2941 13.0795 18.3143C13.0997 18.3346 13.1272 18.3459 13.1559 18.3459H15.8119C15.8407 18.346 15.8684 18.3346 15.8889 18.3144C15.9095 18.2942 15.9213 18.2668 15.9219 18.238V12.0639C15.9219 10.8639 16.7219 10.0139 18.0019 10.0139C19.4019 10.0139 19.7559 11.1659 19.7559 12.3399V18.238C19.7559 18.2666 19.7672 18.2941 19.7875 18.3143C19.8077 18.3346 19.8352 18.3459 19.8639 18.3459H22.5139C22.5427 18.346 22.5704 18.3346 22.5909 18.3144C22.6115 18.2942 22.6233 18.2668 22.6239 18.238V11.9879C22.6239 11.7739 22.6238 11.5639 22.5958 11.3599C22.5503 10.6914 22.3836 10.0368 22.1039 9.42795Z" fill="white"/>
<path d="M8.84226 11.5741C8.84226 11.5741 7.49026 11.2561 6.99226 11.1281C6.49426 11.0001 5.62426 10.7281 5.62426 10.0701C5.62426 9.41205 6.32626 9.20205 7.03826 9.20205C7.75026 9.20205 8.54226 9.37405 8.60426 10.1641C8.60676 10.1925 8.61987 10.219 8.64099 10.2383C8.6621 10.2575 8.68968 10.2682 8.71826 10.2681L11.3363 10.2581C11.3517 10.2581 11.3669 10.255 11.381 10.2488C11.3952 10.2427 11.4079 10.2337 11.4184 10.2225C11.4289 10.2112 11.437 10.1979 11.4421 10.1834C11.4473 10.1688 11.4494 10.1534 11.4483 10.1381C11.2863 7.61005 9.06826 6.70605 7.02226 6.70605C4.59626 6.70605 2.82226 8.30605 2.82226 10.0701C2.82226 11.3581 3.18626 12.5661 6.04826 13.4061C6.55026 13.5521 7.23226 13.7421 7.82826 13.9081C8.54426 14.1081 8.93026 14.4101 8.93026 14.8861C8.93026 15.4381 8.13026 15.8221 7.34426 15.8221C6.20626 15.8221 5.39826 15.4001 5.33226 14.6421C5.32882 14.6143 5.31532 14.5888 5.2943 14.5703C5.27328 14.5519 5.24621 14.5418 5.21826 14.5421L2.60626 14.5541C2.59094 14.554 2.57579 14.5571 2.56169 14.5631C2.54759 14.5691 2.53484 14.5778 2.5242 14.5888C2.51356 14.5999 2.50525 14.6129 2.49976 14.6272C2.49427 14.6415 2.49172 14.6567 2.49226 14.6721C2.61226 17.0581 4.91626 18.3441 7.06426 18.3441C10.2643 18.3441 11.7103 16.5441 11.7103 14.8581C11.7143 14.0661 11.5323 12.2621 8.84226 11.5741Z" fill="white"/>
<path d="M42.5221 7.30429C41.1921 7.30429 40.0781 8.04029 39.3601 8.92829V7.40829C39.3601 7.37999 39.349 7.35282 39.3292 7.33262C39.3094 7.31243 39.2824 7.30082 39.2541 7.30029H36.7701C36.7415 7.30029 36.714 7.31167 36.6937 7.33192C36.6735 7.35218 36.6621 7.37965 36.6621 7.40829V21.6083C36.6626 21.6366 36.6742 21.6635 36.6944 21.6834C36.7146 21.7032 36.7418 21.7143 36.7701 21.7143H39.4281C39.4562 21.7143 39.4832 21.7031 39.5031 21.6832C39.5229 21.6634 39.5341 21.6364 39.5341 21.6083V16.9403H39.5741C39.9961 17.5843 41.1501 18.3563 42.6581 18.3563C45.4941 18.3563 47.8581 16.0043 47.8581 12.8263C47.8601 9.77629 45.5081 7.30429 42.5221 7.30429ZM42.2761 15.6503C41.7162 15.6642 41.1649 15.511 40.6925 15.2102C40.2201 14.9094 39.8481 14.4746 39.6239 13.9615C39.3996 13.4483 39.3334 12.8799 39.4336 12.3289C39.5338 11.7779 39.7959 11.2693 40.1865 10.8679C40.5771 10.4665 41.0784 10.1906 41.6264 10.0754C42.1745 9.96023 42.7444 10.0109 43.2636 10.2211C43.7827 10.4312 44.2274 10.7913 44.541 11.2553C44.8545 11.7193 45.0227 12.2663 45.0241 12.8263C45.0299 13.1924 44.9634 13.556 44.8283 13.8963C44.6932 14.2366 44.4922 14.5468 44.2368 14.8092C43.9815 15.0716 43.6768 15.281 43.3404 15.4253C43.0039 15.5697 42.6422 15.6461 42.2761 15.6503Z" fill="white"/>
<path d="M28.7961 6.68018C26.3181 6.68018 25.0821 7.52218 24.0901 8.19618L24.0601 8.21617C24.009 8.2512 23.9729 8.30424 23.9592 8.36468C23.9455 8.42512 23.9551 8.48851 23.9861 8.54218L24.9661 10.2302C24.9845 10.2618 25.0096 10.2889 25.0397 10.3096C25.0698 10.3304 25.1041 10.3442 25.1401 10.3502C25.1754 10.3565 25.2116 10.355 25.2462 10.3457C25.2808 10.3363 25.3128 10.3194 25.3401 10.2962L25.4181 10.2322C25.9281 9.80417 26.7461 9.23217 28.7261 9.07617C29.8281 8.98817 30.7801 9.27617 31.4821 9.93217C32.2541 10.6442 32.7161 11.7942 32.7161 13.0082C32.7161 15.2422 31.4001 16.6462 29.2861 16.6742C27.5441 16.6642 26.3741 15.7562 26.3741 14.4142C26.3741 13.7022 26.6961 13.2382 27.3241 12.7742C27.3721 12.7399 27.406 12.6894 27.4196 12.632C27.4332 12.5747 27.4255 12.5143 27.3981 12.4622L26.5181 10.7982C26.5019 10.7684 26.4799 10.7421 26.4535 10.7208C26.427 10.6996 26.3967 10.6837 26.3641 10.6742C26.3308 10.6643 26.2958 10.6614 26.2613 10.6659C26.2269 10.6704 26.1938 10.6821 26.1641 10.7002C25.1761 11.2862 23.9641 12.3582 24.0301 14.4182C24.1101 17.0402 26.2901 19.0422 29.1241 19.1242H29.2661H29.4601C32.8281 19.0142 35.2601 16.5142 35.2601 13.1242C35.2601 10.0122 32.9921 6.68018 28.7961 6.68018Z" fill="white"/>
<path d="M42.2757 10.016C41.7152 10.0021 41.1633 10.1556 40.6906 10.4571C40.2179 10.7585 39.8459 11.194 39.622 11.7081C39.3982 12.2221 39.3328 12.7912 39.4341 13.3426C39.5355 13.894 39.799 14.4026 40.191 14.8034C40.5829 15.2042 41.0856 15.479 41.6346 15.5927C42.1836 15.7063 42.754 15.6536 43.2729 15.4413C43.7917 15.2289 44.2355 14.8667 44.5474 14.4008C44.8593 13.9349 45.0251 13.3866 45.0237 12.826C45.0292 12.4607 44.9624 12.0978 44.827 11.7585C44.6917 11.4191 44.4905 11.1099 44.235 10.8486C43.9795 10.5874 43.6749 10.3793 43.3386 10.2364C43.0023 10.0935 42.6411 10.0186 42.2757 10.016Z" fill="#5A31F4"/>
<path d="M76.0179 3.68408H53.3399C51.7747 3.68408 50.5059 4.95291 50.5059 6.51808V18.9341C50.5059 20.4993 51.7747 21.7681 53.3399 21.7681H76.0179C77.583 21.7681 78.8519 20.4993 78.8519 18.9341V6.51808C78.8519 4.95291 77.583 3.68408 76.0179 3.68408Z" fill="white"/>
<path d="M61.6745 10.2041C61.6745 12.1381 60.3205 13.5181 58.4285 13.5181H56.6445C56.6047 13.5181 56.5665 13.5339 56.5384 13.562C56.5103 13.5902 56.4945 13.6283 56.4945 13.6681V16.2081C56.4945 16.2479 56.4787 16.286 56.4505 16.3142C56.4224 16.3423 56.3843 16.3581 56.3445 16.3581H55.0885C55.0489 16.3576 55.011 16.3416 54.983 16.3136C54.955 16.2856 54.939 16.2477 54.9385 16.2081V7.04209C54.9385 7.00231 54.9543 6.96415 54.9824 6.93602C55.0105 6.90789 55.0487 6.89209 55.0885 6.89209H58.4285C60.3205 6.89209 61.6745 8.28009 61.6745 10.2041ZM60.1185 10.2041C60.1185 9.09609 59.3605 8.28409 58.3325 8.28409H56.6445C56.6049 8.28461 56.567 8.30058 56.539 8.3286C56.511 8.35662 56.495 8.39447 56.4945 8.43409V11.9761C56.495 12.0155 56.511 12.0532 56.5391 12.0809C56.5672 12.1086 56.605 12.1241 56.6445 12.1241H58.3325C59.3605 12.1241 60.1185 11.3141 60.1185 10.2041Z" fill="#5A31F4"/>
<path d="M62.0437 14.6001C62.0307 14.3036 62.0919 14.0086 62.2218 13.7417C62.3517 13.4749 62.5463 13.2447 62.7877 13.0721C63.2757 12.7061 64.0317 12.5161 65.1537 12.4721L66.3437 12.4321V12.0801C66.3437 11.3781 65.8717 11.0801 65.1137 11.0801C64.3557 11.0801 63.8777 11.3481 63.7657 11.7861C63.7568 11.8171 63.7378 11.8441 63.7117 11.863C63.6856 11.8818 63.6539 11.8914 63.6217 11.8901H62.4477C62.4261 11.8907 62.4047 11.8865 62.3849 11.8778C62.365 11.8692 62.3474 11.8563 62.3331 11.8401C62.3188 11.8239 62.3082 11.8048 62.3021 11.784C62.296 11.7633 62.2945 11.7415 62.2977 11.7201C62.4737 10.6801 63.3337 9.89014 65.1677 9.89014C67.1157 9.89014 67.8177 10.7961 67.8177 12.5261V16.2021C67.818 16.222 67.8143 16.2417 67.8069 16.2602C67.7995 16.2786 67.7884 16.2954 67.7745 16.3095C67.7605 16.3236 67.7439 16.3349 67.7256 16.3425C67.7072 16.3502 67.6876 16.3541 67.6677 16.3541H66.4817C66.4618 16.3541 66.4422 16.3502 66.4238 16.3425C66.4055 16.3349 66.3889 16.3236 66.3749 16.3095C66.361 16.2954 66.35 16.2786 66.3425 16.2602C66.3351 16.2417 66.3314 16.222 66.3317 16.2021V15.9281C66.3337 15.9041 66.3279 15.8801 66.3151 15.8596C66.3023 15.8391 66.2833 15.8234 66.2608 15.8146C66.2383 15.8058 66.2136 15.8045 66.1904 15.811C66.1671 15.8174 66.1465 15.8311 66.1317 15.8501C65.7777 16.2361 65.2017 16.5161 64.2837 16.5161C62.9377 16.5201 62.0437 15.8161 62.0437 14.6001ZM66.3437 13.8001V13.5161L64.8037 13.5961C63.9917 13.6381 63.5177 13.9761 63.5177 14.5441C63.5177 15.0581 63.9517 15.3441 64.7077 15.3441C65.7357 15.3441 66.3437 14.7881 66.3437 13.8021V13.8001Z" fill="#5A31F4"/>
<path d="M69.0102 19.134V18.064C69.0101 18.0416 69.0149 18.0195 69.0244 17.9992C69.0338 17.9789 69.0476 17.9609 69.0648 17.9466C69.082 17.9323 69.1022 17.9219 69.1238 17.9163C69.1455 17.9106 69.1681 17.9098 69.1902 17.914C69.3715 17.9484 69.5556 17.9658 69.7402 17.966C70.0582 17.9819 70.3724 17.8907 70.6324 17.7068C70.8924 17.523 71.0832 17.2571 71.1742 16.952L71.2522 16.706C71.2642 16.673 71.2642 16.6369 71.2522 16.604L68.7842 10.264C68.7766 10.2413 68.7745 10.2172 68.778 10.1935C68.7816 10.1699 68.7906 10.1474 68.8044 10.128C68.8183 10.1085 68.8365 10.0925 68.8576 10.0814C68.8788 10.0703 68.9023 10.0643 68.9261 10.064H70.1261C70.1569 10.0643 70.1869 10.0737 70.2122 10.0912C70.2375 10.1087 70.257 10.1333 70.2682 10.162L71.9442 14.634C71.9552 14.6632 71.9749 14.6884 72.0007 14.7061C72.0264 14.7239 72.0569 14.7334 72.0882 14.7334C72.1194 14.7334 72.1499 14.7239 72.1756 14.7061C72.2014 14.6884 72.2211 14.6632 72.2321 14.634L73.6862 10.174C73.696 10.1436 73.7152 10.1171 73.7411 10.0984C73.767 10.0797 73.7982 10.0697 73.8302 10.07H75.0602C75.084 10.0703 75.1075 10.0763 75.1287 10.0874C75.1498 10.0985 75.168 10.1145 75.1819 10.134C75.1957 10.1534 75.2047 10.1759 75.2083 10.1995C75.2118 10.2232 75.2097 10.2473 75.2021 10.27L72.5622 17.312C71.9622 18.948 70.9122 19.368 69.7622 19.368C69.5455 19.3732 69.3292 19.347 69.1201 19.29C69.0869 19.2801 69.058 19.2594 69.0381 19.2311C69.0181 19.2028 69.0083 19.1685 69.0102 19.134Z" fill="#5A31F4"/>
</g>
<defs>
<clipPath id="clip0_1_2796">
<rect width="82" height="24" fill="white" transform="translate(0.660156 0.180176)"/>
</clipPath>
</defs>
</svg>
