<svg width="14" height="15" viewBox="0 0 14 15" fill="none" xmlns="http://www.w3.org/2000/svg">
<rect x="0.382812" y="0.892212" width="13.4275" height="13.4275" rx="2.933" fill="black"/>
<path fill-rule="evenodd" clip-rule="evenodd" d="M8.54617 6.69326C8.99589 7.01325 9.53445 7.18421 10.0862 7.18214V6.08764C9.97775 6.08794 9.86957 6.07632 9.76363 6.05298V6.92493C9.21062 6.92591 8.67127 6.75299 8.22175 6.43058V8.68161C8.2204 9.05098 8.11919 9.4131 7.92887 9.72957C7.73855 10.046 7.46621 10.3051 7.14073 10.4792C6.81525 10.6533 6.44877 10.736 6.08013 10.7185C5.7115 10.701 5.35446 10.584 5.04688 10.3799C5.33138 10.668 5.69491 10.8652 6.09143 10.9464C6.48795 11.0275 6.89963 10.9891 7.27432 10.836C7.64902 10.6829 7.96989 10.4219 8.1963 10.0861C8.42271 9.75032 8.54447 9.35485 8.54617 8.94976V6.69326ZM8.94531 5.57687C8.71661 5.32877 8.57628 5.01195 8.54617 4.67573V4.53345H8.23998C8.27783 4.74716 8.36019 4.95051 8.48171 5.13028C8.60323 5.31005 8.76118 5.46221 8.94531 5.57687V5.57687ZM5.75585 9.51343C5.64972 9.37453 5.58469 9.2086 5.56814 9.03453C5.5516 8.86046 5.58421 8.68523 5.66226 8.5288C5.74031 8.37236 5.86067 8.241 6.00965 8.14966C6.15862 8.05832 6.33022 8.01067 6.50491 8.01214C6.60136 8.01211 6.69725 8.02687 6.78923 8.05592V6.92493C6.68171 6.91068 6.57326 6.90458 6.46482 6.90669V7.78594C6.24085 7.71508 5.99844 7.73119 5.7858 7.83108C5.57316 7.93096 5.40587 8.10729 5.31721 8.325C5.22855 8.54271 5.22501 8.78585 5.3073 9.00605C5.38959 9.22625 5.55167 9.40739 5.76131 9.51343H5.75585Z" fill="#EE1D52"/>
<path fill-rule="evenodd" clip-rule="evenodd" d="M8.2213 6.42329C8.67081 6.74569 9.21016 6.91862 9.76317 6.91764V6.04568C9.44809 5.979 9.16187 5.81503 8.94485 5.57687C8.76072 5.46221 8.60277 5.31005 8.48125 5.13028C8.35973 4.95051 8.27737 4.74716 8.23952 4.53345H7.43396V8.94976C7.43321 9.14524 7.37131 9.33558 7.25696 9.49405C7.14262 9.65253 6.98155 9.77119 6.79639 9.83336C6.61122 9.89554 6.41125 9.89812 6.22455 9.84074C6.03784 9.78336 5.87378 9.6689 5.75539 9.51343C5.56776 9.41867 5.4175 9.26341 5.32885 9.0727C5.2402 8.88199 5.21833 8.66694 5.26677 8.46226C5.31521 8.25758 5.43114 8.07521 5.59584 7.94456C5.76054 7.81391 5.96442 7.74261 6.17457 7.74216C6.271 7.74247 6.36683 7.75723 6.45889 7.78594V6.90669C6.06114 6.91625 5.67483 7.04184 5.34738 7.26804C5.01993 7.49425 4.7656 7.81123 4.6156 8.18006C4.4656 8.5489 4.42647 8.95355 4.503 9.34434C4.57953 9.73512 4.7684 10.095 5.04642 10.3799C5.35406 10.5855 5.71166 10.7037 6.08113 10.7219C6.45059 10.7402 6.81808 10.6578 7.14444 10.4835C7.47081 10.3092 7.74383 10.0496 7.93443 9.73227C8.12503 9.41496 8.22606 9.05185 8.22676 8.68161L8.2213 6.42329Z" fill="white"/>
<path fill-rule="evenodd" clip-rule="evenodd" d="M9.763 6.04564V5.81032C9.47365 5.81155 9.18989 5.73059 8.94468 5.57683C9.16115 5.81567 9.44761 5.97978 9.763 6.04564V6.04564ZM8.23935 4.5334C8.23935 4.49145 8.22659 4.44767 8.22113 4.40571V4.26343H7.10937V8.68156C7.10841 8.92895 7.00942 9.16585 6.83413 9.34027C6.65884 9.51469 6.42158 9.61238 6.1744 9.61189C6.02887 9.61262 5.88522 9.57887 5.75522 9.51339C5.87361 9.66886 6.03767 9.78332 6.22438 9.8407C6.41108 9.89808 6.61105 9.8955 6.79622 9.83332C6.98138 9.77114 7.14245 9.65249 7.25679 9.49401C7.37114 9.33554 7.43304 9.1452 7.43379 8.94972V4.5334H8.23935ZM6.45872 6.90482V6.65491C6.00124 6.59271 5.5362 6.68743 5.13939 6.92362C4.74258 7.15982 4.43739 7.52357 4.27357 7.9556C4.10975 8.38762 4.09695 8.86244 4.23727 9.30268C4.37758 9.74291 4.66273 10.1226 5.04625 10.3799C4.77033 10.0943 4.58348 9.73457 4.50851 9.34449C4.43354 8.95441 4.4737 8.55093 4.62409 8.18333C4.77448 7.81572 5.02859 7.49992 5.35536 7.2745C5.68214 7.04907 6.06744 6.92379 6.46419 6.91395L6.45872 6.90482Z" fill="#69C9D0"/>
</svg>
