<svg width="8" height="13" viewBox="0 0 8 13" fill="none" xmlns="http://www.w3.org/2000/svg">
<path fill-rule="evenodd" clip-rule="evenodd" d="M0.773255 1.23773C0.960783 1.05026 1.21509 0.944946 1.48026 0.944946C1.74542 0.944946 1.99973 1.05026 2.18726 1.23773L7.18725 6.23773C7.37473 6.42526 7.48004 6.67957 7.48004 6.94473C7.48004 7.2099 7.37473 7.4642 7.18725 7.65173L2.18726 12.6517C1.99865 12.8339 1.74605 12.9347 1.48385 12.9324C1.22166 12.9301 0.970845 12.825 0.785437 12.6396C0.600029 12.4541 0.49486 12.2033 0.492581 11.9411C0.490303 11.6789 0.591097 11.4263 0.773255 11.2377L5.06626 6.94473L0.773255 2.65173C0.585784 2.46421 0.480469 2.2099 0.480469 1.94473C0.480469 1.67957 0.585784 1.42526 0.773255 1.23773Z" fill="white"/>
</svg>
