<svg width="19" height="26" viewBox="0 0 19 26" fill="none"
    xmlns="http://www.w3.org/2000/svg">
    <g id="Frame">
        <path id="Vector" fill-rule="evenodd" clip-rule="evenodd" d="M9.84081 0.922546C7.81989 0.922546 6.16648 2.55995 6.14319 4.58742H3.05686C2.29856 4.58742 1.67999 5.19945 1.63414 5.97012L0.922415 18.747C0.904949 19.1167 1.03885 19.4762 1.2972 19.7534L1.30011 19.7563C1.58029 20.0416 1.9558 20.2083 2.34878 20.2083H17.3285C17.7215 20.2083 18.0977 20.0409 18.3742 19.7556L18.3764 19.7534C18.5032 19.6194 18.6017 19.4612 18.6661 19.2883C18.7305 19.1154 18.7594 18.9313 18.7512 18.747V18.7455L18.0373 5.97085C17.9951 5.19945 17.3794 4.58742 16.6146 4.58742H13.5392C13.5071 2.55995 11.8617 0.922546 9.84081 0.922546ZM17.3147 18.7783L16.6131 6.04289V6.03998C16.6129 6.03329 16.6116 6.02667 16.6095 6.02033L16.6087 6.01815C16.6072 6.01408 16.6053 6.01017 16.6029 6.00651H13.5348V6.84195C13.7982 7.03552 13.9685 7.35063 13.9685 7.7014C13.9722 7.84245 13.9476 7.98281 13.8962 8.11421C13.8448 8.2456 13.7676 8.36537 13.6691 8.46644C13.5707 8.56751 13.453 8.64784 13.323 8.70269C13.193 8.75754 13.0533 8.7858 12.9122 8.7858C12.7711 8.7858 12.6315 8.75754 12.5015 8.70269C12.3715 8.64784 12.2538 8.56751 12.1553 8.46644C12.0568 8.36537 11.9796 8.2456 11.9282 8.11421C11.8768 7.98281 11.8522 7.84245 11.8559 7.7014C11.8559 7.43359 11.9549 7.19199 12.115 7.00569V6.01014H7.56227V7.00933C7.72237 7.19417 7.82207 7.43723 7.81043 7.70577C7.81383 7.84682 7.78895 7.98712 7.73725 8.1184C7.68555 8.24968 7.60809 8.36927 7.50943 8.47013C7.41077 8.57099 7.29291 8.65107 7.1628 8.70565C7.03269 8.76022 6.89297 8.78819 6.75188 8.7879C6.61079 8.7876 6.47119 8.75906 6.34131 8.70395C6.21143 8.64883 6.0939 8.56827 5.99565 8.467C5.89741 8.36574 5.82044 8.24582 5.76929 8.11433C5.71813 7.98284 5.69383 7.84244 5.69781 7.7014C5.69781 7.34699 5.86883 7.0348 6.13154 6.84195V6.00651H3.06414C3.0575 6.01618 3.05372 6.02753 3.05322 6.03925L2.34368 18.7812H17.3096L17.3125 18.7797L17.3147 18.7783ZM9.8379 2.34891C10.4344 2.35014 11.0066 2.58517 11.4318 3.00354C11.857 3.42191 12.1012 3.99029 12.1121 4.58669H7.56373C7.57458 3.99029 7.81881 3.42191 8.24398 3.00354C8.66916 2.58517 9.2414 2.35014 9.8379 2.34891Z" fill="#282828"/>
    </g>
</svg>
