<svg width="87" height="78" viewBox="0 0 87 78" fill="none" xmlns="http://www.w3.org/2000/svg">
<path d="M65.4448 64.6382H26.9191C20.9095 64.6382 16.0088 59.7386 16.0088 53.7302V18.324C16.0088 12.3157 20.9095 7.41602 26.9191 7.41602H65.4448C71.4544 7.41602 76.3551 12.3157 76.3551 18.324V53.7302C76.3551 59.7028 71.4544 64.6382 65.4448 64.6382Z" fill="#B2A4FF"/>
<path d="M61.2961 70.0744H22.7704C16.26 70.0744 10.9658 64.7813 10.9658 58.2723V22.866C10.9658 16.357 16.26 11.064 22.7704 11.064H61.2961C67.8065 11.064 73.1007 16.357 73.1007 22.866V58.2723C73.1007 64.8171 67.8065 70.0744 61.2961 70.0744ZM22.7704 12.8879C17.2616 12.8879 12.7544 17.3942 12.7544 22.9018V58.3081C12.7544 63.8157 17.2616 68.3219 22.7704 68.3219H61.2961C66.8049 68.3219 71.3121 63.8157 71.3121 58.3081V22.9018C71.3121 17.3942 66.8049 12.8879 61.2961 12.8879C61.2961 12.8522 22.7704 12.8522 22.7704 12.8879Z" fill="#7E8BFF"/>
<path d="M60.7954 27.0504C63.2254 27.0504 65.1953 25.0809 65.1953 22.6514C65.1953 20.2219 63.2254 18.2524 60.7954 18.2524C58.3654 18.2524 56.3955 20.2219 56.3955 22.6514C56.3955 25.0809 58.3654 27.0504 60.7954 27.0504Z" fill="#7E8BFF"/>
<path d="M42.2294 56.9846C50.3491 56.9846 56.9314 50.4036 56.9314 42.2856C56.9314 34.1676 50.3491 27.5867 42.2294 27.5867C34.1097 27.5867 27.5273 34.1676 27.5273 42.2856C27.5273 50.4036 34.1097 56.9846 42.2294 56.9846Z" fill="white"/>
<path d="M42.0148 57.2709C33.7159 57.2709 26.9551 50.5115 26.9551 42.2143C26.9551 33.9171 33.7159 27.1577 42.0148 27.1577C50.3138 27.1577 57.0746 33.9171 57.0746 42.2143C57.0746 50.5115 50.3495 57.2709 42.0148 57.2709ZM42.0148 28.9459C34.6817 28.9459 28.7436 34.9185 28.7436 42.2143C28.7436 49.5101 34.6817 55.4827 42.0148 55.4827C49.3479 55.4827 55.286 49.5101 55.286 42.2143C55.286 34.9185 49.3479 28.9459 42.0148 28.9459Z" fill="#7E8BFF"/>
</svg>
