<svg width="25" height="17" viewBox="0 0 25 17" fill="none" xmlns="http://www.w3.org/2000/svg">
<path d="M10.2935 7.82355C10.2489 8.16241 9.98108 8.16241 9.73559 8.16241H9.60168L9.71327 7.50728C9.71327 7.4621 9.7579 7.43951 9.80254 7.43951H9.86949C10.048 7.43951 10.2043 7.43951 10.2935 7.52987C10.2935 7.62023 10.2935 7.7106 10.2935 7.82355ZM10.1819 6.91992H9.22229C9.15533 6.91992 9.1107 6.9651 9.08838 7.03288L8.70898 9.51785C8.70898 9.56303 8.7313 9.60821 8.79826 9.60821H9.2446C9.31156 9.60821 9.35619 9.56303 9.37851 9.49526L9.49009 8.81754C9.49009 8.74977 9.55705 8.70459 9.624 8.70459H9.93644C10.5613 8.70459 10.9184 8.38832 11.03 7.77837C11.0746 7.50728 11.03 7.30396 10.9184 7.14583C10.7399 7.01028 10.4944 6.91992 10.1819 6.91992Z" fill="#263577"/>
<path d="M12.3905 8.72713C12.3459 8.99822 12.145 9.17894 11.8772 9.17894C11.7433 9.17894 11.6317 9.13376 11.5648 9.0434C11.4978 8.95304 11.4755 8.84008 11.4978 8.72713C11.5425 8.45604 11.7433 8.27532 12.0111 8.27532C12.145 8.27532 12.2566 8.3205 12.3236 8.41086C12.3682 8.47863 12.4128 8.59158 12.3905 8.72713ZM13.0154 7.8235H12.5691C12.5244 7.8235 12.5021 7.84609 12.4798 7.89127L12.4575 8.02682L12.4352 7.98164C12.3459 7.84609 12.1227 7.77832 11.8996 7.77832C11.3863 7.77832 10.9622 8.16236 10.8729 8.70454C10.8283 8.97563 10.8953 9.22412 11.0515 9.40485C11.1854 9.56298 11.3862 9.63076 11.6317 9.63076C12.0335 9.63076 12.2566 9.35967 12.2566 9.35967L12.2343 9.49521C12.2343 9.54039 12.2566 9.58558 12.3236 9.58558H12.7253C12.7922 9.58558 12.8369 9.54039 12.8592 9.47262L13.1047 7.89127C13.1047 7.86868 13.0824 7.8235 13.0154 7.8235Z" fill="#263577"/>
<path d="M15.4503 7.82349H14.9816C14.937 7.82349 14.8924 7.84608 14.8701 7.89126L14.2452 8.84007L13.9774 7.93644C13.955 7.86867 13.9104 7.84608 13.8435 7.84608H13.3971C13.3525 7.84608 13.3078 7.89126 13.3302 7.95903L13.8435 9.45001L13.3748 10.1277C13.3302 10.1729 13.3748 10.2633 13.4417 10.2633H13.9104C13.955 10.2633 13.9997 10.2407 14.022 10.1955L15.5396 7.95903C15.5619 7.89126 15.5173 7.82349 15.4503 7.82349Z" fill="#263577"/>
<path d="M17.0787 7.82355C17.034 8.16241 16.7662 8.16241 16.5207 8.16241H16.3868L16.4984 7.50728C16.4984 7.4621 16.5431 7.43951 16.5877 7.43951H16.6546C16.8332 7.43951 16.9894 7.43951 17.0787 7.52987C17.101 7.62023 17.101 7.7106 17.0787 7.82355ZM16.9671 6.91992H16.0074C15.9405 6.91992 15.8959 6.9651 15.8735 7.03288L15.4941 9.51785C15.4941 9.56303 15.5165 9.60821 15.5834 9.60821H16.0744C16.119 9.60821 16.1637 9.58562 16.1637 9.51785L16.2752 8.81754C16.2752 8.74977 16.3422 8.70459 16.4092 8.70459H16.7216C17.3465 8.70459 17.7036 8.38832 17.8152 7.77837C17.8598 7.50728 17.8152 7.30396 17.7036 7.14583C17.5473 7.01028 17.3019 6.91992 16.9671 6.91992Z" fill="#2199D6"/>
<path d="M19.1991 8.72713C19.1545 8.99822 18.9536 9.17894 18.6858 9.17894C18.5519 9.17894 18.4403 9.13376 18.3734 9.0434C18.3064 8.95304 18.2841 8.84008 18.3064 8.72713C18.3511 8.45604 18.5519 8.27532 18.8197 8.27532C18.9536 8.27532 19.0652 8.3205 19.1322 8.41086C19.1768 8.47863 19.2214 8.59158 19.1991 8.72713ZM19.824 7.8235H19.3777C19.333 7.8235 19.3107 7.84609 19.2884 7.89127L19.2661 8.02682L19.2438 7.98164C19.1545 7.84609 18.9313 7.77832 18.7081 7.77832C18.1948 7.77832 17.7708 8.16236 17.6815 8.70454C17.6369 8.97563 17.7039 9.22412 17.8601 9.40485C17.994 9.56298 18.1948 9.63076 18.4403 9.63076C18.842 9.63076 19.0652 9.35967 19.0652 9.35967L19.0429 9.49521C19.0429 9.54039 19.0652 9.58558 19.1322 9.58558H19.5339C19.6008 9.58558 19.6455 9.54039 19.6678 9.47262L19.9133 7.89127C19.9133 7.86868 19.8687 7.8235 19.824 7.8235Z" fill="#2199D6"/>
<path d="M20.3587 6.98769L19.957 9.51785C19.957 9.56303 19.9794 9.60821 20.0463 9.60821H20.448C20.515 9.60821 20.5596 9.56303 20.5819 9.49526L20.9613 7.01028C20.9613 6.9651 20.939 6.91992 20.872 6.91992H20.4257C20.4034 6.91992 20.3811 6.9651 20.3587 6.98769Z" fill="#2199D6"/>
<path d="M4.73757 10.0826L4.80452 9.60824H4.6483H3.86719L4.40281 6.15186C4.40281 6.15186 4.40281 6.12927 4.42512 6.12927H4.44744H5.76417C6.1882 6.12927 6.50064 6.21964 6.65686 6.40036C6.72382 6.49072 6.76845 6.58109 6.79077 6.67145C6.81309 6.7844 6.81309 6.89736 6.79077 7.05549V7.14585L6.85772 7.19103C6.92467 7.21363 6.96931 7.25881 7.01394 7.30399C7.08089 7.37176 7.12553 7.46212 7.12553 7.57508C7.14785 7.68803 7.14785 7.82357 7.10321 7.98171C7.05858 8.16243 7.01394 8.29798 6.94699 8.43352C6.88004 8.54647 6.79077 8.63684 6.7015 8.7272C6.61223 8.79497 6.47832 8.84015 6.36674 8.88533C6.23283 8.90793 6.09893 8.93052 5.94271 8.93052H5.83112C5.76417 8.93052 5.69722 8.95311 5.63026 8.99829C5.58563 9.04347 5.54099 9.11124 5.51868 9.17901V9.22419L5.38477 10.0601V10.0826V10.1052C5.38477 10.1052 5.38477 10.1052 5.36245 10.1052H4.73757V10.0826Z" fill="#263577"/>
<path d="M6.94489 7.05542C6.94489 7.07801 6.94489 7.1006 6.92257 7.12319C6.74403 8.02682 6.16378 8.3205 5.40499 8.3205H5.02559C4.93632 8.3205 4.84706 8.38827 4.84706 8.47863L4.6462 9.74371L4.60156 10.1052C4.60156 10.1729 4.6462 10.2181 4.69083 10.2181H5.38267C5.47194 10.2181 5.53889 10.1503 5.53889 10.0826V10.0374L5.6728 9.22412V9.17894C5.69512 9.08858 5.76207 9.0434 5.82902 9.0434H5.94061C6.61013 9.0434 7.12343 8.77231 7.25733 7.98164C7.32428 7.64278 7.27965 7.37169 7.12343 7.19096C7.0788 7.14578 7.01184 7.1006 6.94489 7.05542Z" fill="#2199D6"/>
<path d="M6.76695 6.98769C6.74463 6.98769 6.72232 6.9651 6.67768 6.9651C6.65537 6.9651 6.61073 6.94251 6.58841 6.94251C6.47682 6.91992 6.36524 6.91992 6.25365 6.91992H5.22705C5.20473 6.91992 5.18242 6.91992 5.1601 6.94251C5.11546 6.9651 5.07083 7.01028 5.07083 7.05547L4.84766 8.45609V8.50127C4.86997 8.41091 4.93692 8.34314 5.02619 8.34314H5.40559C6.16438 8.34314 6.74463 8.02687 6.92317 7.14583C6.92317 7.12324 6.92317 7.10065 6.94549 7.07806C6.90086 7.05547 6.85622 7.03288 6.81159 7.01028C6.78927 6.98769 6.76695 6.98769 6.76695 6.98769Z" fill="#252C5E"/>
<path d="M5.07147 7.05541C5.07147 7.01023 5.1161 6.96505 5.16073 6.94246C5.18305 6.94246 5.20537 6.91987 5.22769 6.91987H6.25429C6.36587 6.91987 6.49978 6.91987 6.58905 6.94246C6.61136 6.94246 6.656 6.94246 6.67832 6.96505C6.70064 6.96505 6.72295 6.98764 6.76759 6.98764C6.7899 6.98764 6.7899 6.98764 6.81222 7.01023C6.85686 7.03282 6.90149 7.05541 6.94613 7.078C6.99076 6.73914 6.94613 6.51324 6.76759 6.30992C6.56673 6.08401 6.20965 5.99365 5.7633 5.99365H4.44658C4.35731 5.99365 4.26804 6.06142 4.26804 6.15179L3.73242 9.63075C3.73242 9.69852 3.77706 9.7663 3.84401 9.7663H4.64743L4.84829 8.45604L5.07147 7.05541Z" fill="#263577"/>
<rect x="0.425781" y="0.443726" width="24" height="15.5" rx="1.75" stroke="#D9D3D0" stroke-width="0.5"/>
</svg>
