<svg width="86" height="78" viewBox="0 0 86 78" fill="none" xmlns="http://www.w3.org/2000/svg">
<g clip-path="url(#clip0_1_4332)">
<path d="M10.2959 26.4123V37.821C10.2959 40.1456 12.156 42.2199 14.2665 42.2199C28.2889 42.2199 39.1276 42.5061 50.2525 52.1623V11.2126C38.6268 20.8689 28.8255 21.7272 14.2665 21.7272C12.1202 21.763 10.2959 23.5154 10.2959 26.4123Z" fill="#B2A4FF"/>
<path d="M18.7375 47.7633C21.4204 47.7633 23.3162 47.7633 26.5714 48.0494L31.9729 65.8241H24.1032L18.7375 47.7633ZM18.7375 45.9751H16.3408L17.0205 48.264L22.422 66.3247L22.8154 67.6122H34.3696L33.6542 65.2876L28.2527 47.5129L27.895 46.3327L26.6787 46.2254C23.3878 45.9751 21.4561 45.9751 18.7375 45.9751Z" fill="#7E8BFF"/>
<path d="M48.3919 17.0422V54.7731C37.0524 45.8679 25.999 45.6176 11.7262 45.6176C9.57996 45.6176 7.68408 43.7221 7.68408 41.5762V31.0617C7.68408 28.3794 9.57996 26.7342 11.7262 26.7342C26.5714 26.77 36.5516 25.9474 48.3919 17.0422ZM50.1805 13.4658L47.3187 15.6117C41.9173 19.653 36.6589 22.1564 30.7924 23.4797C25.3551 24.6957 19.4529 24.946 11.7262 24.946C8.3995 24.946 5.89551 27.5568 5.89551 31.0617V41.5762C5.89551 44.7235 8.57836 47.4058 11.7262 47.4058C24.8186 47.4058 36.1223 47.4057 47.283 56.2037L50.1805 58.4926V13.4658Z" fill="#7E8BFF"/>
<path d="M45.208 35.5679C45.208 50.088 49.429 61.7113 54.6517 61.8186C61.5198 61.9616 64.0953 50.0523 64.0953 35.5679C64.0953 21.0835 61.6986 8.78074 54.6517 9.3172C49.4648 9.67484 45.208 21.0478 45.208 35.5679Z" fill="#B2A4FF"/>
<path d="M54.7597 62.7127H54.6166C48.7501 62.5696 44.3145 50.9106 44.3145 35.5679C44.3145 20.5113 48.7143 8.81652 54.5808 8.42312C56.3694 8.28006 57.9791 8.88805 59.3384 10.1398C61.914 12.536 64.9903 18.9019 64.9903 35.5679C64.9903 44.5446 64.0245 56.2394 59.3384 60.7814C58.0507 62.0689 56.5125 62.7127 54.7597 62.7127ZM55.0816 10.1755H54.7239C52.6134 10.3186 50.4314 12.9651 48.8216 17.4356C47.0689 22.2637 46.103 28.7012 46.103 35.5679C46.103 50.6245 50.5387 60.853 54.6524 60.9245C55.9401 60.9603 57.0848 60.4953 58.0864 59.4939C61.3774 56.2752 63.166 47.7634 63.166 35.5679C63.166 23.0505 61.3774 14.4672 58.0864 11.4273C57.2279 10.6047 56.1905 10.1755 55.0816 10.1755Z" fill="#7E8BFF"/>
<path d="M57.156 59.9945C61.0677 59.9945 64.2387 48.8501 64.2387 35.1028C64.2387 21.3556 61.0677 10.2112 57.156 10.2112C53.2443 10.2112 50.0732 21.3556 50.0732 35.1028C50.0732 48.8501 53.2443 59.9945 57.156 59.9945Z" fill="white"/>
<path d="M57.1557 60.8887C51.9689 60.8887 49.1787 47.6203 49.1787 35.1029C49.1787 22.5855 51.9689 9.31714 57.1557 9.31714C62.3426 9.31714 65.1327 22.5855 65.1327 35.1029C65.1327 47.6203 62.3426 60.8887 57.1557 60.8887ZM57.1557 11.1053C56.0468 11.1053 54.4013 12.8578 53.0062 17.7574C51.6827 22.371 50.9673 28.5581 50.9673 35.1029C50.9673 41.6835 51.6827 47.8348 53.0062 52.4484C54.4013 57.348 56.0826 59.1005 57.1557 59.1005C58.2646 59.1005 59.9101 57.348 61.3052 52.4484C62.6287 47.8348 63.3442 41.6477 63.3442 35.1029C63.3442 28.5581 62.6287 22.371 61.3052 17.7574C59.8743 12.8578 58.2289 11.1053 57.1557 11.1053Z" fill="#7E8BFF"/>
<path d="M51.3614 30.4536H50.6817V40.5032H51.3614C54.2231 40.3959 56.4409 38.2143 56.4409 35.4963C56.4409 32.7782 54.2231 30.5609 51.3614 30.4536ZM70.3202 38.1428C68.9251 38.1428 68.9251 35.8897 70.3202 35.8897H82.4109C84.2352 35.8897 84.2352 38.1428 82.4109 38.1428H70.3202ZM69.4974 47.6202C68.4958 46.8692 69.7836 45.1883 70.7494 45.9393L79.2988 52.4126C80.5866 53.3782 79.2988 55.0591 78.0468 54.0935L69.4974 47.6202ZM79.1915 19.5813C80.6223 18.5084 81.8743 20.1893 80.4435 21.2622L70.9283 28.4508C69.8194 29.2734 68.5674 27.6282 69.6763 26.7699L79.1915 19.5813ZM5.00167 29.3806C5.43093 29.3806 5.93173 29.5237 5.93173 29.5237V43.0067C5.93173 43.0067 5.2163 43.114 4.75127 43.114C4.50087 43.114 4.32201 43.0782 4.32201 43.0067C4.32201 43.0067 3.9643 32.9213 4.32201 29.8098C4.32201 29.4879 4.64396 29.3806 5.00167 29.3806ZM5.00167 27.5925C3.4635 27.5925 2.64076 28.5938 2.53345 29.5952C2.17573 32.7782 2.49768 42.4702 2.53345 43.0424C2.56922 43.9008 3.14156 44.6161 4.00007 44.8306C4.2147 44.9022 4.4651 44.9022 4.7155 44.9022C5.32361 44.9022 6.07481 44.7949 6.2179 44.7591L7.72029 44.5088V28.2362L6.4683 27.8428C6.32521 27.807 5.68133 27.5925 5.00167 27.5925Z" fill="#7E8BFF"/>
</g>
<defs>
<clipPath id="clip0_1_4332">
<rect width="85.86" height="77.25" fill="white" transform="translate(0.0605469 0.0900879)"/>
</clipPath>
</defs>
</svg>
