<svg width="10" height="10" viewBox="0 0 10 10" fill="none" xmlns="http://www.w3.org/2000/svg">
<g clip-path="url(#clip0_18_12682)">
<path d="M2.8433 5.95769C3.29241 5.95769 3.67757 5.79851 3.99877 5.48015C4.31997 5.1618 4.48057 4.77522 4.48057 4.32042C4.48057 3.8713 4.32139 3.48614 4.00303 3.16494C3.68468 2.84374 3.2981 2.68314 2.8433 2.68314C2.39418 2.68314 2.00902 2.84374 1.68782 3.16494C1.36662 3.48614 1.20602 3.8713 1.20602 4.32042C1.20602 4.77522 1.3652 5.1618 1.68356 5.48015C2.00192 5.79851 2.3885 5.95769 2.8433 5.95769ZM5.02633 5.95769L6.83416 7.76552L6.2884 8.31128L4.48057 6.50345V6.21352L4.37824 6.11119C4.17358 6.29311 3.93908 6.43239 3.67473 6.52904C3.41037 6.62568 3.13323 6.674 2.8433 6.674C2.51357 6.674 2.20658 6.61431 1.92233 6.49493C1.63239 6.36986 1.38083 6.20215 1.16765 5.9918C0.954459 5.78146 0.785331 5.53132 0.660261 5.24139C0.535191 4.95714 0.472656 4.65015 0.472656 4.32042C0.472656 3.99637 0.535191 3.68938 0.660261 3.39945C0.785331 3.10951 0.954459 2.85795 1.16765 2.64477C1.38083 2.43158 1.63239 2.26245 1.92233 2.13738C2.20658 2.01231 2.51357 1.94978 2.8433 1.94978C3.17303 1.94978 3.48002 2.01231 3.76427 2.13738C4.04851 2.26245 4.29723 2.43158 4.51042 2.64477C4.72361 2.85795 4.89274 3.10951 5.01781 3.39945C5.13719 3.68938 5.19688 3.99637 5.19688 4.32042C5.19688 4.61035 5.14856 4.88749 5.05192 5.15185C4.95527 5.4162 4.81599 5.6507 4.63407 5.85536L4.7364 5.95769H5.02633Z" fill="black"/>
</g>
<defs>
<clipPath id="clip0_18_12682">
<rect width="8.73214" height="8.73214" fill="white" transform="matrix(1 0 0 -1 0.472656 9.41138)"/>
</clipPath>
</defs>
</svg>
