<svg width="8" height="9" viewBox="0 0 8 9" fill="none" xmlns="http://www.w3.org/2000/svg">
<g clip-path="url(#clip0_18_14097)">
<path d="M5.85698 5.40903L7.4073 3.98265L5.29778 3.72594L5.29686 3.72583C5.17209 3.71008 5.05928 3.63203 5.00315 3.51498L5.00277 3.51421L4.10059 1.61279L3.19691 3.51432L3.1966 3.51498C3.14109 3.63072 3.03012 3.71016 2.90199 3.72594L0.793945 3.98264L2.34478 5.4082C2.4431 5.49642 2.48584 5.62939 2.45989 5.75646L2.05584 7.81152L3.91973 6.79588L3.9212 6.79509C4.03331 6.73516 4.16935 6.73516 4.28146 6.79509L4.28293 6.79588L6.14682 7.81152L5.74276 5.75642C5.71602 5.62547 5.76423 5.49416 5.85698 5.40903ZM5.85698 5.40903C5.8569 5.40908 5.85702 5.40899 5.85698 5.40903Z" stroke="#FFB4B4" stroke-width="0.417033"/>
</g>
<defs>
<clipPath id="clip0_18_14097">
<rect width="7.08957" height="7.53266" fill="white" transform="translate(0.555664 0.949951)"/>
</clipPath>
</defs>
</svg>
