<svg xmlns="http://www.w3.org/2000/svg" width="50" height="33" viewBox="0 0 50 33" fill="none">
  <path fill-rule="evenodd" clip-rule="evenodd" d="M17.7369 20.555H15.5482L13.9069 14.0303C13.829 13.7302 13.6636 13.4649 13.4203 13.3398C12.8131 13.0256 12.144 12.7754 11.4141 12.6493V12.3981H14.9399C15.4265 12.3981 15.7915 12.7754 15.8523 13.2137L16.7039 17.9201L18.8915 12.3981H21.0194L17.7369 20.555ZM22.2356 20.555H20.1685L21.8706 12.3981H23.9377L22.2356 20.555ZM26.6129 14.6566C26.6737 14.2172 27.0387 13.966 27.4645 13.966C28.1336 13.903 28.8624 14.0291 29.4707 14.3423L29.8357 12.5861C29.2274 12.3349 28.5583 12.2087 27.9511 12.2087C25.9448 12.2087 24.485 13.3386 24.485 14.9067C24.485 16.0996 25.5191 16.726 26.249 17.1033C27.0387 17.4795 27.3428 17.7307 27.282 18.107C27.282 18.6714 26.6737 18.9226 26.0665 18.9226C25.3366 18.9226 24.6066 18.7344 23.9386 18.4202L23.5737 20.1775C24.3036 20.4907 25.0933 20.6168 25.8232 20.6168C28.0727 20.6788 29.4707 19.55 29.4707 17.8558C29.4707 15.7222 26.6129 15.5972 26.6129 14.6566ZM36.7036 20.555L35.0623 12.3981H33.2994C32.9344 12.3981 32.5695 12.6493 32.4478 13.0256L29.4086 20.555H31.5365L31.9612 19.3631H34.5757L34.819 20.555H36.7036ZM33.6038 14.5938L34.211 17.668H32.5089L33.6038 14.5938Z" fill="#172B85"/>
  <rect x="0.849609" y="1.16504" width="48" height="31" rx="3.5" stroke="#D9D3D0"/>
</svg>