<svg xmlns="http://www.w3.org/2000/svg" width="27" height="49" viewBox="0 0 27 49" fill="none">
<path d="M25.3755 13.0774C20.9679 12.9685 16.6494 14.0315 12.8658 16.1748C11.6266 14.1232 10.3816 11.8023 9.27183 9.73639C9.09357 9.40115 8.91531 9.07163 8.73993 8.75072C8.23966 7.82521 8.91245 6.69914 9.96762 6.69914L25.824 6.68481L25.7292 0L5.93954 0.0372493C3.86657 0.0659026 2.0236 1.15473 1.00005 2.95415C-0.0206225 4.74785 -0.00624821 6.88252 1.03455 8.66762C1.72459 9.84814 2.51237 11.3209 3.36917 12.9026C4.63423 15.2607 6.06318 17.914 7.52375 20.2751C6.07468 21.7421 4.80099 23.3925 3.71707 25.1977C-0.0522454 31.5215 -0.750909 38.6046 1.9431 43.255C3.81769 46.4871 7.10398 48.2607 11.2068 48.2607C11.2758 48.2607 11.3448 48.2607 11.4109 48.255C17.0491 48.1805 19.5821 45.3983 20.7178 43.0716C23.8114 36.7564 19.7201 26.9771 16.5574 21.7335C19.1566 20.3352 22.0518 19.6734 25.1857 19.7479L25.87 19.7679L26.054 13.0831L25.3698 13.0688L25.3755 13.0774ZM14.9071 39.9685C14.6944 40.3352 14.0158 41.5444 11.3189 41.5817C9.5421 41.6017 8.47254 41.0487 7.75376 39.9198C6.65833 38.1977 7.04935 32.7049 9.47884 28.6332C9.86986 27.9799 10.4851 27.0458 11.3419 26.043C13.7772 30.3811 17.3222 35.8453 14.91 39.9742L14.9071 39.9685Z" fill="#B2A4FF"/>
</svg>