<svg width="18" height="16" viewBox="0 0 18 16" fill="none" xmlns="http://www.w3.org/2000/svg">
<path d="M5.05084 0.670166C3.90769 0.671719 2.81185 1.12307 2.00373 1.9252C1.19561 2.72733 0.741212 3.81472 0.740234 4.94881L0.740234 11.0592C0.7418 12.1933 1.19676 13.2804 2.00529 14.0821C2.81383 14.8838 3.90991 15.3346 5.05305 15.3356H11.2122C12.3554 15.3341 13.4512 14.8827 14.2593 14.0806C15.0674 13.2785 15.5218 12.1911 15.5228 11.057V4.94661C15.5213 3.81252 15.0663 2.72536 14.2578 1.92365C13.4492 1.12193 12.3531 0.671136 11.21 0.670166L5.05084 0.670166ZM12.4429 3.11416C12.5238 3.11416 12.604 3.12998 12.6788 3.16071C12.7536 3.19145 12.8215 3.23649 12.8788 3.29328C12.936 3.35007 12.9814 3.41749 13.0124 3.49168C13.0434 3.56588 13.0593 3.6454 13.0593 3.72571C13.0593 3.80602 13.0434 3.88555 13.0124 3.95974C12.9814 4.03394 12.936 4.10136 12.8788 4.15814C12.8215 4.21493 12.7536 4.25998 12.6788 4.29071C12.604 4.32144 12.5238 4.33726 12.4429 4.33726C12.2794 4.33726 12.1226 4.27283 12.007 4.15814C11.8914 4.04345 11.8264 3.8879 11.8264 3.72571C11.8264 3.56352 11.8914 3.40797 12.007 3.29328C12.1226 3.17859 12.2794 3.11416 12.4429 3.11416ZM8.13153 4.33653C10.17 4.33653 11.8272 5.98052 11.8272 8.00289C11.8272 10.0253 10.17 11.6693 8.13153 11.6693C6.09301 11.6693 4.43588 10.0253 4.43588 8.00289C4.43588 5.98052 6.09301 4.33653 8.13153 4.33653ZM8.13153 5.55889C7.47816 5.55889 6.85156 5.81638 6.38956 6.27472C5.92756 6.73306 5.66801 7.3547 5.66801 8.00289C5.66801 8.65108 5.92756 9.27272 6.38956 9.73106C6.85156 10.1894 7.47816 10.4469 8.13153 10.4469C8.78489 10.4469 9.4115 10.1894 9.8735 9.73106C10.3355 9.27272 10.595 8.65108 10.595 8.00289C10.595 7.3547 10.3355 6.73306 9.8735 6.27472C9.4115 5.81638 8.78489 5.55889 8.13153 5.55889Z" fill="black"/>
</svg>
