<svg width="6" height="6" viewBox="0 0 6 6" fill="none" xmlns="http://www.w3.org/2000/svg">
<g clip-path="url(#clip0_18_12706)">
<path d="M1.14056 4.05807C1.14056 4.0069 1.12265 3.96341 1.08684 3.9276C1.05102 3.89178 1.00753 3.87387 0.956369 3.87387C0.901793 3.87387 0.856597 3.89178 0.820782 3.9276C0.784966 3.96341 0.767058 4.0069 0.767058 4.05807C0.767058 4.11264 0.784966 4.15784 0.820782 4.19365C0.856597 4.22947 0.901793 4.24738 0.956369 4.24738C1.00753 4.24738 1.05102 4.22947 1.08684 4.19365C1.12265 4.15784 1.14056 4.11264 1.14056 4.05807ZM1.61128 2.56405V4.43157C1.61128 4.48274 1.59252 4.52708 1.555 4.5646C1.51748 4.60212 1.47313 4.62088 1.42197 4.62088H0.582865C0.5317 4.62088 0.487357 4.60212 0.449836 4.5646C0.412315 4.52708 0.393555 4.48274 0.393555 4.43157V2.56405C0.393555 2.51289 0.412315 2.46854 0.449836 2.43102C0.487357 2.3935 0.5317 2.37474 0.582865 2.37474H1.42197C1.47313 2.37474 1.51748 2.3935 1.555 2.43102C1.59252 2.46854 1.61128 2.51289 1.61128 2.56405ZM5.07003 2.56405C5.07003 2.63909 5.05553 2.71584 5.02654 2.79429C4.99754 2.87275 4.95917 2.94097 4.91142 2.99895C4.92847 3.0433 4.93956 3.08593 4.94467 3.12687C4.94979 3.1678 4.95235 3.1985 4.95235 3.21896C4.95576 3.294 4.94723 3.36478 4.92676 3.4313C4.9063 3.49781 4.87389 3.56006 4.82955 3.61805C4.84661 3.67262 4.85513 3.72891 4.85513 3.78689C4.85513 3.84488 4.84661 3.90287 4.82955 3.96085C4.81591 4.01543 4.79544 4.06659 4.76815 4.11435C4.74087 4.1621 4.70846 4.20303 4.67094 4.23714C4.68117 4.3463 4.6735 4.44521 4.64792 4.5339C4.62233 4.62259 4.58225 4.69933 4.52768 4.76414C4.46628 4.83918 4.38698 4.89632 4.28976 4.93555C4.19255 4.97477 4.07913 4.99438 3.94952 4.99438H3.57601C3.36453 4.99438 3.16243 4.9671 2.96971 4.91252C2.77699 4.85795 2.60217 4.80337 2.44527 4.74879C2.35317 4.71809 2.26619 4.6891 2.18433 4.66181C2.10246 4.63453 2.03595 4.62088 1.98478 4.62088C1.93362 4.61747 1.88928 4.59786 1.85175 4.56204C1.81423 4.52623 1.79547 4.48274 1.79547 4.43157V2.55894C1.79547 2.51118 1.81338 2.4694 1.8492 2.43358C1.88501 2.39777 1.9268 2.37645 1.97455 2.36963C2.02913 2.36621 2.1127 2.29885 2.22526 2.16752C2.33782 2.0362 2.42651 1.92961 2.49132 1.84774C2.54589 1.77952 2.59791 1.71471 2.64737 1.65332C2.69683 1.59192 2.74373 1.53905 2.78807 1.49471C2.84606 1.43672 2.88614 1.36679 2.90831 1.28493C2.93048 1.20307 2.95009 1.1195 2.96715 1.03422C2.9842 0.948947 3.00552 0.863672 3.03111 0.778397C3.05669 0.693122 3.10018 0.619786 3.16158 0.558388C3.17863 0.541333 3.1991 0.527689 3.22297 0.517456C3.24685 0.507223 3.27073 0.502107 3.2946 0.502107C3.62206 0.502107 3.81308 0.59932 3.86765 0.793746C3.92223 0.988173 3.94952 1.14167 3.94952 1.25423C3.94952 1.37362 3.93161 1.47765 3.89579 1.56634C3.85998 1.65502 3.82331 1.73689 3.78579 1.81193C3.76873 1.84604 3.75338 1.87418 3.73974 1.89635C3.7261 1.91852 3.71245 1.95348 3.69881 2.00124H4.51233C4.66241 2.00124 4.79288 2.05667 4.90374 2.16752C5.0146 2.27838 5.07003 2.41056 5.07003 2.56405Z" fill="black"/>
</g>
<defs>
<clipPath id="clip0_18_12706">
<rect width="4.68043" height="5.23929" fill="white" transform="matrix(1 0 0 -1 0.391602 5.32178)"/>
</clipPath>
</defs>
</svg>
