<svg width="24" height="24" viewBox="0 0 24 24" fill="none" xmlns="http://www.w3.org/2000/svg">
<g clip-path="url(#clip0_1_5351)">
<path fill-rule="evenodd" clip-rule="evenodd" d="M0.5 2C0.5 0.9 1.4 0 2.5 0H21.5C22.0304 0 22.5391 0.210714 22.9142 0.585786C23.2893 0.960859 23.5 1.46957 23.5 2V17C23.5 17.5304 23.2893 18.0391 22.9142 18.4142C22.5391 18.7893 22.0304 19 21.5 19H2.5C1.96957 19 1.46086 18.7893 1.08579 18.4142C0.710714 18.0391 0.5 17.5304 0.5 17V2Z" fill="white"/>
<path fill-rule="evenodd" clip-rule="evenodd" d="M13.5 17.9L5.5 24L5.53 14L13.5 17.9Z" fill="white"/>
<path d="M6.89988 5H17.0999M6.89988 9H17.0999M6.87988 13H12.1299" stroke="#A39594"/>
</g>
<defs>
<clipPath id="clip0_1_5351">
<rect width="24" height="24" fill="white"/>
</clipPath>
</defs>
</svg>
