<svg width="8" height="8" viewBox="0 0 8 8" fill="none" xmlns="http://www.w3.org/2000/svg">
<g clip-path="url(#clip0_18_19850)">
<g clip-path="url(#clip1_18_19850)">
<g clip-path="url(#clip2_18_19850)">
<path d="M4.48828 0.321289C2.56328 0.321289 0.988281 1.89629 0.988281 3.82129C0.988281 5.74629 2.56328 7.32129 4.48828 7.32129C6.41328 7.32129 7.98828 5.74629 7.98828 3.82129C7.98828 1.89629 6.41328 0.321289 4.48828 0.321289ZM4.79453 6.00879H3.96328V5.13379H4.79453V6.00879ZM5.93203 2.90254C5.93203 3.69004 5.36328 4.04004 4.70703 4.12754L4.66328 4.60879H4.18203L4.05078 3.60254L4.09453 3.55879C4.88203 3.51504 5.23203 3.29629 5.23203 2.85879C5.23203 2.50879 4.96953 2.29004 4.53203 2.29004C4.13828 2.29004 3.83203 2.46504 3.52578 2.77129L3.04453 2.29004C3.39453 1.89629 3.87578 1.59004 4.53203 1.59004C5.36328 1.63379 5.93203 2.11504 5.93203 2.90254Z" fill="#8F8F8F"/>
</g>
</g>
</g>
<defs>
<clipPath id="clip0_18_19850">
<rect width="7" height="7" fill="white" transform="translate(0.988281 0.321289)"/>
</clipPath>
<clipPath id="clip1_18_19850">
<rect width="7" height="7" fill="white" transform="translate(0.988281 0.321289)"/>
</clipPath>
<clipPath id="clip2_18_19850">
<rect width="7" height="7" fill="white" transform="translate(0.988281 0.321289)"/>
</clipPath>
</defs>
</svg>
