<svg width="21" height="21" viewBox="0 0 21 21" fill="none"
    xmlns="http://www.w3.org/2000/svg">
    <g id="Frame">
        <path id="Vector" d="M13.7062 9.16823C13.711 9.29457 13.7647 9.41411 13.8558 9.50177C13.9469 9.58943 14.0684 9.6384 14.1948 9.6384C14.3213 9.6384 14.4428 9.58943 14.5339 9.50177C14.625 9.41411 14.6786 9.29457 14.6835 9.16823C14.6835 6.22672 12.29 3.83465 9.35067 3.83465C9.28491 3.83212 9.21932 3.84288 9.15781 3.86629C9.09631 3.88971 9.04017 3.92529 8.99274 3.97092C8.94532 4.01655 8.90759 4.07128 8.88183 4.13183C8.85606 4.19239 8.84277 4.25752 8.84277 4.32333C8.84277 4.38914 8.85606 4.45427 8.88183 4.51482C8.90759 4.57538 8.94532 4.63011 8.99274 4.67574C9.04017 4.72136 9.09631 4.75695 9.15781 4.78037C9.21932 4.80378 9.28491 4.81454 9.35067 4.812C10.5054 4.81373 11.6124 5.27327 12.4288 6.08987C13.2453 6.90646 13.7046 8.01348 13.7062 9.16823Z" fill="#282828"/>
        <path id="Vector_2" fill-rule="evenodd" clip-rule="evenodd" d="M9.15272 16.9674C4.88092 16.9674 1.40234 13.4903 1.40234 9.21483C1.40234 4.94302 4.87801 1.46954 9.15272 1.46954C13.4223 1.46954 16.8944 4.94739 16.8944 9.22211C16.8944 10.6819 16.4883 12.0457 15.7882 13.2123L19.7536 17.1784C19.819 17.2429 19.8708 17.3198 19.9062 17.4045C19.9416 17.4892 19.9598 17.58 19.9598 17.6718C19.9598 17.7636 19.9416 17.8545 19.9062 17.9392C19.8708 18.0239 19.819 18.1007 19.7536 18.1652L18.0937 19.8259C17.9623 19.9543 17.7861 20.0264 17.6025 20.0268C17.4179 20.026 17.241 19.9528 17.1098 19.823L13.148 15.854C11.9421 16.5812 10.5609 16.9661 9.15272 16.9674ZM15.5088 9.21847C15.5131 5.70933 12.6568 2.85952 9.15272 2.85952C5.64795 2.85952 2.79596 5.7086 2.79596 9.21847C2.79596 12.7283 5.64431 15.5774 9.15272 15.5774C12.6611 15.5774 15.5088 12.7283 15.5088 9.21847ZM17.6025 18.3406L18.2742 17.6682L15.0212 14.4138L14.3386 15.0753L17.6025 18.3399V18.3406Z" fill="#282828"/>
    </g>
</svg>
