<svg width="87" height="78" viewBox="0 0 87 78" fill="none" xmlns="http://www.w3.org/2000/svg">
<g clip-path="url(#clip0_1_4322)">
<path d="M76.2292 57.6701H16.0976C14.4521 57.6701 13.0928 56.311 13.0928 54.6659V17.4715C13.0928 15.8263 14.4521 14.4673 16.0976 14.4673H76.2292C77.8747 14.4673 79.234 15.8263 79.234 17.4715V54.6659C79.234 56.311 77.8747 57.6701 76.2292 57.6701Z" fill="#FFB4B4"/>
<path d="M72.6522 18.6158C74.2977 18.6158 75.6212 19.9391 75.6212 21.5842V57.8488C75.6212 59.494 74.2977 60.8172 72.6522 60.8172H12.449C10.8035 60.8172 9.47997 59.494 9.47997 57.8488V21.5842C9.47997 19.9391 10.8035 18.6158 12.449 18.6158H72.6522ZM72.6522 16.8276H12.449C9.83769 16.8276 7.69141 18.9735 7.69141 21.5842V57.8488C7.69141 60.4596 9.83769 62.6054 12.449 62.6054H72.6522C75.2635 62.6054 77.4098 60.4596 77.4098 57.8488V21.5842C77.4098 18.9377 75.2993 16.8276 72.6522 16.8276Z" fill="#7E8BFF"/>
<path d="M69.3608 38.286H40.1714C39.5633 38.286 39.0625 37.7853 39.0625 37.1773C39.0625 36.5693 39.5633 36.0686 40.1714 36.0686H69.3608C69.969 36.0686 70.4698 36.5693 70.4698 37.1773C70.4698 37.7853 69.969 38.286 69.3608 38.286ZM69.3608 46.0825H40.1714C39.5633 46.0825 39.0625 45.5818 39.0625 44.9738C39.0625 44.3658 39.5633 43.8651 40.1714 43.8651H69.3608C69.969 43.8651 70.4698 44.3658 70.4698 44.9738C70.4698 45.5818 69.969 46.0825 69.3608 46.0825ZM69.3608 53.7002H40.1714C39.5633 53.7002 39.0625 53.1995 39.0625 52.5915C39.0625 51.9835 39.5633 51.4828 40.1714 51.4828H69.3608C69.969 51.4828 70.4698 51.9835 70.4698 52.5915C70.4698 53.1995 69.969 53.7002 69.3608 53.7002Z" fill="#7E8BFF"/>
<path d="M23.4308 40.2173C27.8561 40.2173 31.4435 36.6306 31.4435 32.2062C31.4435 27.7818 27.8561 24.1951 23.4308 24.1951C19.0054 24.1951 15.418 27.7818 15.418 32.2062C15.418 36.6306 19.0054 40.2173 23.4308 40.2173Z" fill="white" stroke="#7E8BFF" stroke-width="1.78856" stroke-miterlimit="10"/>
</g>
<defs>
<clipPath id="clip0_1_4322">
<rect width="85.86" height="77.25" fill="white" transform="translate(0.389648 0.0900879)"/>
</clipPath>
</defs>
</svg>
